<svg xmlns="http://www.w3.org/2000/svg" viewBox="0 0 333.56 500.98"><defs><style>.cls-1{fill:#6fbe8a;}.cls-2{fill:#171511;}.cls-3{fill:#065848;}.cls-4{fill:#fea03e;}.cls-5{fill:#fdded5;}.cls-6{fill:#fbb9aa;}</style></defs><g id="Layer_2" data-name="Layer 2"><g id="Layer_1-2" data-name="Layer 1"><path class="cls-1" d="M166.62,2.32C183.6-1.51,202-.88,218,6.41c18.43,7.91,32.91,22.72,44.12,39C276.8,66.85,287,91,295.09,115.6c15.62,47,23.23,96.13,30.18,145,.5,11.74,2.42,23.34,3.18,35.06,1.92,18,3.15,36,4.06,54,1,9.29,1,18.67,1.05,28a91.11,91.11,0,0,1-21.4,57.39c-8.94,11.49-20.89,20.11-33.16,27.72a210.57,210.57,0,0,1-50.37,21.28c-.2-13.13,0-26.27,0-39.4.06-9.84-1.34-19.64-.86-29.48,1.79-1.24,5.29-1.7,4.73-4.57-.16-10.32-.27-20.65-.42-31-.86-14.67-.08-29.4-1.32-44.05.18-8.56-1.71-17-1.22-25.55,4.56,4.76,9.63,9.77,16.37,11.05,6.49,1.08,13.75-.12,18.79-4.61a41.36,41.36,0,0,0,9.86-13.08,309.4,309.4,0,0,0,12.55-33.71c3-8.06,3.45-16.73,5-25.12.21-2.45,1.26-5.3-.54-7.41-4-5.83-6.13-12.7-9.84-18.71a32.14,32.14,0,0,1-2.73-5c.46-3.71,2.59-7.09,2.48-10.91,0-2.43-1-5.37-3.69-5.85-8.38-2.62-17.09-4-25.47-6.58-4.1-1-8.08-2.72-12.31-3.19-1.87.55-2.68,2.56-3.59,4.09-4.26,8.47-7.18,17.53-10.05,26.54-8.95-3.53-18.42-5.24-27.63-7.84,4.58-1.88,9.29-3.8,12.91-7.32,11.44-10.57,16.57-26.54,16.28-41.85-.49-5.23,5.44-7.61,6.21-12.44,1-4.13-2.06-7.61-2.9-11.47-.82-3.68-1.75-7.38-3.81-10.59-12.53-20.52-36.26-34.56-60.57-33.26-14.34-.07-27.9,7-38.26,16.5-10.52,9.55-16.21,23.44-17.67,37.37-.58,8.62,3.79,16.34,7.33,23.87-8.6,6.81-17.47,14.47-21.4,25A12.63,12.63,0,0,0,103,211.47c5.41,3.19,11.83,2.51,17.84,2.76-8.61,6.38-17.42,12.81-24,21.43-10.08,13.06-17.15,28.25-22.34,43.84-1,2.78-2.51,5.37-3.38,8.21.82,1.75,2.39,3,3.7,4.33a174.42,174.42,0,0,0-14.18,53.63C59.42,357.91,63,371.6,73.05,379.45c3,2.12,6,4.58,9.73,5.18,8.13.13,14.93-4.9,20.66-10.11.55,10.72-.08,21.47.25,32.2-.35,2.94,2.77,4.1,4.33,6,.58,3.93.18,7.92,0,11.87-.78,11.67-1.42,23.34-1.36,35,0,13.77-1.31,27.52-1.14,41.28-13.27.22-26.5-.48-39.74-1.1-17.44-2.11-35.94-4.82-50.12-16.08C4.7,475.38-.44,461.14,0,447.63c-.4-13.27,2.5-26.32,5.51-39.15,4.57-18.14,10.39-35.94,15.27-54,12.7-42.31,17.38-86.38,24.93-129.76,6.44-38,14.42-75.81,26.65-112.38C81.75,86,93.25,59.84,111.2,38.11,125.23,20.75,144.65,7.22,166.62,2.32Z"/><path class="cls-2" d="M128.54,109.34c10.36-9.55,23.92-16.57,38.26-16.5,24.31-1.3,48,12.74,60.57,33.26,2.06,3.21,3,6.91,3.81,10.59.84,3.86,3.88,7.34,2.9,11.47-.77,4.83-6.7,7.21-6.21,12.44.29,15.31-4.84,31.28-16.28,41.85-3.62,3.52-8.33,5.44-12.91,7.32,9.21,2.6,18.68,4.31,27.63,7.84,2.87-9,5.79-18.07,10.05-26.54.91-1.53,1.72-3.54,3.59-4.09,4.23.47,8.21,2.14,12.31,3.19,8.38,2.61,17.09,4,25.47,6.58,2.7.48,3.73,3.42,3.69,5.85.11,3.82-2,7.2-2.48,10.91a32.14,32.14,0,0,0,2.73,5c3.71,6,5.82,12.88,9.84,18.71,1.8,2.11.75,5,.54,7.41-1.54,8.39-2,17.06-5,25.12a309.4,309.4,0,0,1-12.55,33.71,41.36,41.36,0,0,1-9.86,13.08c-5,4.49-12.3,5.69-18.79,4.61-6.74-1.28-11.81-6.29-16.37-11.05-.49,8.55,1.4,17,1.22,25.55,1.24,14.65.46,29.38,1.32,44.05.15,10.32.26,20.65.42,31,.56,2.87-2.94,3.33-4.73,4.57-.48,9.84.92,19.64.86,29.48,0,13.13-.15,26.27,0,39.4v.17c-1.85.48-3.69,1-5.51,1.56-.54-15.73.23-31.47-.21-47.2-.37-8-.7-16.05-.74-24.07-20.44-.77-40.88-1.3-61.31-2-9.86-.14-19.72-.37-29.55-1.11a21,21,0,0,0-4.88-.09l-2.31,0c-1.32-.11-2.63-.18-3.95-.22-1.94-.06-3.89-.06-5.83-.06-.24,6.54,0,13.1-.65,19.63-.51,11.33-.13,22.68-.74,34-1.08,11.69,0,23.46-1,35.16,1.67.13,3.34.32,5,.52-3.8.06-7.57.74-11.38.63-.17-13.76,1.18-27.51,1.14-41.28-.06-11.7.58-23.37,1.36-35,.16-3.95.56-7.94,0-11.87-1.56-1.93-4.68-3.09-4.33-6-.33-10.73.3-21.48-.25-32.2-5.73,5.21-12.53,10.24-20.66,10.11-3.7-.6-6.76-3.06-9.73-5.18-10-7.85-13.63-21.54-12.34-33.78A174.42,174.42,0,0,1,74.89,292c-1.31-1.37-2.88-2.58-3.7-4.33.87-2.84,2.35-5.43,3.38-8.21,5.19-15.59,12.26-30.78,22.34-43.84,6.53-8.62,15.34-15,24-21.43-6-.25-12.43.43-17.84-2.76a12.63,12.63,0,0,1-6.22-15.85c3.93-10.57,12.8-18.23,21.4-25-3.54-7.53-7.91-15.25-7.33-23.87C112.33,132.78,118,118.89,128.54,109.34Zm12.48-3c-13.84,8.64-23.47,24.07-24.6,40.42-.52,7,2.69,13.56,5.93,19.58,3.78-5.42,9.42-10.31,16.4-10.22,1.55.18,3.11.34,4.67.47,6.57-7.2,16.1-10.49,24.54-14.9,1.61-1.67.11-4.11-.13-6.05-3.1-10,4.11-21.13,13.9-23.95,7.15-1.82,15.18-.6,21,4.12,4.3,2.8,6.66,7.4,9.49,11.49-.1,2-.2,3.91-.29,5.87a105.59,105.59,0,0,0,13.86,1.36c-8.06-18.62-26.27-31.8-45.93-35.78C166.57,96.3,152.29,98.69,141,106.3Zm52.77,25.6a141.22,141.22,0,0,0-20.61,3.87c0,1.28,0,2.55.07,3.84,2.91-.82,5.66-2.14,8.61-2.83,8.5-1.42,16.92-4,25.63-3.56,0-.6.07-1.8.09-2.4C203,128.75,198.41,131.75,193.79,131.9ZM208.11,148c-5,3.72-10.07,7.9-16.41,8.94-3.24.58-6.09-1.42-8.76-2.91-3.68,3.63-7.78,7.28-13,8.21-4.57,1.47-9.2-.08-13.77-.59-.66,2.65-.84,7-4.36,7.3-4.89-.59-5.73-7-10.05-8.57-6.46-1.2-12.65,3.24-15.2,9-2.89,5.61-.34,13.3,5.43,15.92,3.17,1.6,6.71,0,10-.1a6.3,6.3,0,0,1,3.25,3.85c.5,5.2-.21,10.41-1.08,15.53-1,4.91,2.63,8.89,4.61,13,4.5,7.44,8.49,15.47,14.95,21.44,1.71-.11,3.42-.25,5.14-.42l-1.05-.71,1.24.58c3-3.89,6.24-8,7.33-12.91,0-5.71.79-11.36,1.26-17-4.88-2.36-11.45-4.23-13.23-10,1.62-1.66,3.74-1.36,5.43,0,5.87,4,12.7,7.24,20,6.81,9.74.43,18.57-5.8,23.83-13.6l.26.1a72.08,72.08,0,0,0,7.16-15c1.09-6.32,3.09-12.74,2.39-19.17-2.94-.8-6.17-1-8.7-2.89C212,153.11,210.09,150.52,208.11,148Zm-97.32,35.67c-4.18,4.84-9.13,10.18-9.24,17,.47,5.46,6.59,7.73,11.27,8.26a58.51,58.51,0,0,0,20.17-3c2.33-1,5.72-.65,7-3.16.66-3.91.19-7.91.32-11.84a53.71,53.71,0,0,1-6.59.09c-3.81-.57-6.93-3.12-9.49-5.84-2.76-2.58-2.62-6.68-4.66-9.71C115.74,177.07,114.05,181.26,110.79,183.71Zm129.71,7.08c-5.26,12.82-8.84,26.21-13,39.39-1.42,4.81-4,9.54-3.29,14.7,1.68-1.74,2.33-4.13,3.11-6.35,4.46-16,10.19-31.57,15.27-47.35Zm-5.35,39.74c-1.49,4.36-2.49,8.92-4.6,13-.23,1.18-.44,2.36-.64,3.56,2.35.81,4.72,1.56,7.06,2.4,3.26.84,6.61,1.25,9.92,1.91a12.45,12.45,0,0,0,5.17.92,6.52,6.52,0,0,0,1.45-5.77c-2.35-1.57-.82-4.65-.77-6.9-1.22-1.19-2.7-2.27-3.31-3.92-.35-2.74,1.13-5.19,2.18-7.6-1.41-1.27-3.66-2.25-3.77-4.42-.4-4.24,2.34-8.09,5.78-10.29,5.78-4.24,13.6-6,20.44-3.43a77.4,77.4,0,0,0,1.44-8.39c-9.59-2.52-19-5.71-28.72-7.81C242.35,205.85,239.09,218.32,235.15,230.53ZM95.2,247.79c-4.58,7.29-8,15.21-11.44,23.08-.27,1-.53,2.06-.79,3.09l-.41-.07c-.71,1.76-1.44,3.51-2.14,5.28-.2,1.32-.39,2.63-.57,4L79,283c-.31,1.1-1.4,2.15-.89,3.36,9.61,1.85,19.32,3.12,29.06,4.05,0-1.14.08-2.27.13-3.4l-.6-.12c.25-1.13.49-2.25.73-3.38,0-1.78,0-3.55,0-5.32l-.44-.09c.28-1,.55-2.08.8-3.12-1-.41-2-.77-3-1.1l3.11.37c.18-3,.12-6.15,1.87-8.75.83,1,2.75,1.41,2.65,3,.25,6.9.24,13.84-.09,20.75.19,1.43.4,2.86.63,4.3,5.2-1.4,10.37-3.69,15.88-2.86,3.38-.12,6.43,1.39,9.58,2.29,1.31,1.44,2.64,2.87,3.9,4.37q-.15,2.89-.34,5.82h-.78l-1.26,2.42q1.58.74,3.21,1.38l-3.28.07c1.2,2.78,2,5.74,0,8.43-2.58-.39-2.37,5-.28,5.51l-.52,3.6c-1,1-1.94,2-2.9,3,1,1.93,2.54,3.79,2.33,6.1.44,5.6-5.68,9.21-10.69,8.88-2.32.12-6.07-1.11-6.66,2.14-2.1,7.33-7.21,13.21-10.35,20-.59,8.29-.21,16.64-.8,24.94-.43,4.75-.31,9.52-.35,14.28l1.16,1.84c38.63.34,77.21,2.49,115.83,3.1.15-22.06-1.12-44.1-.93-66.16-.73-9-1-18.07-2.05-27.07q-.12-3.22-.23-6.43c-.11-2-.25-4.05-.38-6.06-.73-6.58-.7-13.21-1.75-19.76-.57-3.89-.64-7.85-1.58-11.68a25.55,25.55,0,0,0-1.09-6c-.68-5.13-1.09-10.3-1.36-15.46l-.93,0c0-2,0-4-.06-6,1-.83,2-1.68,2.91-2.54l.52-2.08c.77-2,1.43-4,2-6.05a89,89,0,0,0,2.39-8.93c.12-2.22-2.59-2.44-4.08-3.14-12.09-4-24.59-7.5-37.39-7.67-.7,3.91-1.31,7.87-.77,11.84A32,32,0,0,1,174.17,241a11,11,0,0,1-9.51,3.72c-4.51-.53-7.95-4-10.37-7.58-4.85-7.29-9.76-14.63-13.19-22.72-.69-1.14-.82-2.85-2.28-3.33C121.11,218.71,105.47,231.41,95.2,247.79Zm157.19-26,1.29,1.07c5.28,0,10.92-1.23,15.78,1.57-.27.6-.57,1.2-.88,1.79-2.88.55-5.88.43-8.68,1.4a8.92,8.92,0,0,0-5.91,7.71c5.43.08,10.58-2.36,16-2.07,2.21.23,1.83,3.09,1.27,4.62-5.12.87-11.77,1.17-14.46,6.42,4.37.88,9-1.2,13.18.42,1.64,3.48-2.74,4.38-5.11,5.07a47.77,47.77,0,0,0-6.7,1.52c0,1.6.05,3.2.11,4.8,3.13.54,6.76-.28,9.48,1.62.51,1.91.72,3.9,1.09,5.85a22.64,22.64,0,0,0,1.53,5.4c-.63.33-1.9,1-2.54,1.29-1.74.55-2.22-1.57-3.27-2.41-.31-1.09-.62-2.16-.93-3.23-.13-.48-.4-1.46-.54-1.95l-2.32-1.41a21.64,21.64,0,0,1-4,2.37c-1.91,3.19-3.32,6.63-5,10-3.87,5-5.76,11.29-9.85,16.12-1.26,1.38-2.67,0-3.68-.91,1.83-5.08,3.8-10.19,6.81-14.71a29.94,29.94,0,0,0,2.77-5.44c-5.63.65-10.59,3.63-16,5-2,.47-4,.9-6,1.38,1,7.91,1.28,15.91,2.39,23.81.43,4.11,3.86,7,6.52,9.81,5.16,4,11.32,8.22,18.2,6.89,9.15-1.31,14.63-10.05,17.94-17.88,3.2-7.55,6.12-15.24,8.69-23,1.53-5,3.78-9.8,4.32-15,.53-4.74,1.93-9.31,2.82-14,1.26-3.51,1.21-7.48-1.26-10.44-4.08-5.66-5.54-13.36-11.26-17.66-1.75-4.63-7.31-4.07-11.24-3.22C258.75,215.52,254.7,218,252.39,221.78Zm-30.27,27.64c0,2,.09,4,.13,6.05.5,2.54,1,5.09,1.61,7.62a45.56,45.56,0,0,1,.42,6.91l1-1.14c0,.33,0,1-.05,1.3,2.92-1.34,6.15-1.72,9.18-2.79,5.06-2,9.91-4.53,15.25-5.77,2.57.25,6.6-1.07,4.61-4.31-3.91.62-7.79-.08-11.66-.47l-3.73-1.49q-1.68,0-3.36.06c-1.34,0-2.67-.12-4-.22-.06-1.37.12-3.07-1.32-3.82-2-.81-4.29-.47-6.42-.61ZM79.13,293c-6.77,20.2-13.95,41-12.77,62.65,1.08,9,6.09,18.22,14.52,22.3,3.73,1.15,7.57-.83,10.85-2.47a44.8,44.8,0,0,0,13.68-14.36c4.57-5.24,7.63-11.54,11-17.56,1.26-2,1.54-4.55,3.22-6.18,4-1.44,9.11.89,12.7-2.1,1.3-1.91-.38-4.5-2.48-4.81-2.87-.49-5.77-.86-8.62-1.49-.55-1.79.26-4.17,2.49-3.92,3.2-.61,8.42,1.66,9.66-2.64-4-2.53-9-1.41-13.29-3,0-.75-.11-2.23-.15-3,3.08-1.59,6.55-1.19,9.87-1,2.68.33,5.46-2.32,4.72-5.05a47.11,47.11,0,0,0-14-2.35c-.23-1.18-.91-2.58.36-3.43,4.15-2.14,8.76-.71,13.11-.29a7.4,7.4,0,0,0,2.56-4.83c-.85-1.78-2.94-2.33-4.7-2.75-7.62-1.2-16,.7-21.55,6.29-12.51,8.45-17.82,23.71-29.64,32.84-1-2.46-1.44-5.65.77-7.6,7.55-8.23,12.71-18.41,20.89-26.1,1.89-1.9,4.47-3.48,4.74-6.41a127.14,127.14,0,0,1-20.32-2.16C84.22,293.31,81.63,292.43,79.13,293Z"/><path class="cls-2" d="M194.5,162.52c2.29.93,2.78,3.55,3.86,5.52,1.34,3.24,3.35,6.29,3.87,9.82-1.21,3-4.82,2.65-7.47,2.58a15.44,15.44,0,0,1-6.51-1.7C189.82,173.14,192.68,168,194.5,162.52Zm-2.62,13.59c2.2,1.31,4.77.88,7.18.72a63.76,63.76,0,0,0-3.66-7.24C194.14,171.71,193,173.9,191.88,176.11Z"/><path class="cls-2" d="M207.9,164.73c1-1.69,3.74-.81,4,1.05.29,3-.75,6-.87,9a5.73,5.73,0,0,1-5,1.33C206.18,172.27,205.67,168.06,207.9,164.73Z"/><path class="cls-2" d="M177.39,176.63c.19-4.41-.16-9.85,3.46-13,2.47,4.45,1.43,9.66.26,14.33C179.93,178.93,177,178.73,177.39,176.63Z"/><path class="cls-2" d="M132.2,166.1c1.26,0,2.77-.62,3.84.35,3.52,2.59,6.4,5.94,9.31,9.18l-1.52,2.46c-5.06-1.49-9.17-5.51-11.7-10C132.15,167.58,132.18,166.59,132.2,166.1Z"/><path class="cls-2" d="M171.2,182.05c4.72-2.4,10.29-.48,14.9,1.31,3.56,1.53,8,2.24,10.14,5.88,1.75,2.61,1.35,6.52-1.37,8.32-5.73,4.42-13.68,2.55-19.62-.45-3.87-2.09-8.08-6.13-6.72-11A25.3,25.3,0,0,1,171.2,182.05Zm2.23,4.4a2.49,2.49,0,0,0,.47,3.12c3.4,4.32,9.35,6.1,14.68,5.56-1.85-3.63-4-7.62-8-9.16C178.36,185.15,175,184.06,173.43,186.45Z"/><path class="cls-2" d="M171.46,433.11c.85-5.27,6.8-6.51,10.92-8.3.38,1.13,1.28,2.19,1.13,3.46-1.82,2.46-5,3.29-7.58,4.66.38,7.91,1.2,15.82,1,23.76-.26,12.88,1.11,25.72,1.33,38.6-1.93.32-3.85.68-5.8.94-.05-14.22-1.4-28.4-1.29-42.62C171.64,446.78,170.71,439.91,171.46,433.11Z"/><path class="cls-3" d="M193.79,131.9c4.62-.15,9.24-3.15,13.79-1.08,0,.6-.07,1.8-.09,2.4-8.71-.43-17.13,2.14-25.63,3.56-3,.69-5.7,2-8.61,2.83,0-1.29-.05-2.56-.07-3.84A141.22,141.22,0,0,1,193.79,131.9Z"/><path class="cls-3" d="M110.79,183.71c3.26-2.45,4.95-6.64,8.83-8.24,2,3,1.9,7.13,4.66,9.71,2.56,2.72,5.68,5.27,9.49,5.84a53.71,53.71,0,0,0,6.59-.09c-.13,3.93.34,7.93-.32,11.84-1.33,2.51-4.72,2.19-7,3.16a58.51,58.51,0,0,1-20.17,3c-4.68-.53-10.8-2.8-11.27-8.26C101.66,193.89,106.61,188.55,110.79,183.71Z"/><path class="cls-3" d="M223.8,250.74c2.13.14,4.39-.2,6.42.61,1.44.75,1.26,2.45,1.32,3.82,1.33.1,2.66.17,4,.22-3.92,1.34-8.08,1.79-12.06,2.95.11,1.58.24,3.16.38,4.75-.57-2.53-1.11-5.08-1.61-7.62,2.9-.2,5.82-.83,8-2.95-1.73-.31-3.43-.49-5.14-.82Z"/><path class="cls-3" d="M242.63,256.82c3.87.39,7.75,1.09,11.66.47,2,3.24-2,4.56-4.61,4.31,1.17-.94,4.57-.81,3.89-2.81-3.92-1.29-7.68,2.21-11.51,3-5.75,1.24-11,3.78-16.5,5.86-.07.3-.2.9-.26,1.2l-1,1.14a45.56,45.56,0,0,0-.42-6.91,33.36,33.36,0,0,0,9-2.57l2.08-.77C237.48,258.69,240,257.67,242.63,256.82Z"/><path class="cls-3" d="M83.76,270.87c7,.67,14,1.88,21,3,1,.33,2,.69,3,1.1-.25,1-.52,2.08-.8,3.12-8-1.58-16-2.53-24-4.17C83.23,272.93,83.49,271.9,83.76,270.87Z"/><path class="cls-3" d="M79.85,283.14c.18-1.34.37-2.65.57-4a23,23,0,0,0,6.66,1.57c6.8.85,13.49,2.62,20.37,2.8-.24,1.13-.48,2.25-.73,3.38C97.83,285.24,88.8,284.49,79.85,283.14Z"/><path class="cls-3" d="M221.31,283.37c1.05,6.55,1,13.18,1.75,19.76-11.09-.5-22.12.95-33.19,1.17-15.58,1-31.17,1.79-46.75,2.69q-1.63-.64-3.21-1.38l1.26-2.42H142c12-.09,23.93-1.59,35.91-2.09,12.66-.88,25.32-1.62,38-2.58a23.25,23.25,0,0,0,6.64-1.33c-.32-2.66-.69-5.32-1.08-8-13.14,1.49-26.38,1.6-39.57,2.26-14.46.78-28.95,1-43.43,1.51-3.15-.9-6.2-2.41-9.58-2.29-5.51-.83-10.68,1.46-15.88,2.86-.23-1.44-.44-2.87-.63-4.3,26.35-1.12,52.66-3.29,79-4.24,7.51,0,15-1.13,22.49-.83C216.3,284.05,219.07,284.76,221.31,283.37Z"/><path class="cls-3" d="M223.44,309.19q.1,3.21.23,6.43c-28,2.08-56,4.43-84.07,5.38-2.09-.5-2.3-5.9.28-5.51,3.27.77,6.58-.22,9.86-.42q28.53-2.65,57.13-4.48C212.38,309.92,218,310.45,223.44,309.19Z"/><path class="cls-4" d="M141,106.3c11.27-7.61,25.55-10,38.84-7.59,19.66,4,37.87,17.16,45.93,35.78a105.59,105.59,0,0,1-13.86-1.36c.09-2,.19-3.91.29-5.87-2.83-4.09-5.19-8.69-9.49-11.49-5.82-4.72-13.85-5.94-21-4.12-9.79,2.82-17,13.9-13.9,23.95.24,1.94,1.74,4.38.13,6.05-8.44,4.41-18,7.7-24.54,14.9-1.56-.13-3.12-.29-4.67-.47-.72-5.2-4.73-9.2-5.3-14.43-.82-6.87-.78-14.06,1.67-20.61,1.82-5.46,5.39-10.08,7.62-15.35Z"/><path class="cls-4" d="M114.35,411c1.94,0,3.89,0,5.83.06.09,6.53-1,13-.78,19.57-.27,7.68.09,15.4-.8,23.05-.76,10.31.06,20.7-1.06,31-.12,5.23-.25,10.46-.14,15.7l-.48-.06c-1.66-.2-3.33-.39-5-.52,1-11.7,0-23.47,1-35.16.61-11.32.23-22.67.74-34C114.31,424.1,114.11,417.54,114.35,411Z"/><path class="cls-4" d="M124.13,411.28l2.31,0a27,27,0,0,1,.48,8.36c-1.14,11.61-.3,23.32-1.36,34.94-.23,9-.29,18-.57,27.06a141.24,141.24,0,0,0-.7,18.74c-1,0-2.05,0-3.07,0,.2-6.22.28-12.45.47-18.66,1-11,.21-22.13,1.45-33.13C123.18,436.2,123.69,423.74,124.13,411.28Z"/><path class="cls-4" d="M131.32,411.41c9.83.74,19.69,1,29.55,1.11,20.43.74,40.87,1.27,61.31,2,0,8,.37,16.05.74,24.07.44,15.73-.33,31.47.21,47.2V486a441.37,441.37,0,0,1-44.84,9.29c-.22-12.88-1.59-25.72-1.33-38.6.17-7.94-.65-15.85-1-23.76,2.6-1.37,5.76-2.2,7.58-4.66.15-1.27-.75-2.33-1.13-3.46-4.12,1.79-10.07,3-10.92,8.3-.75,6.8.18,13.67-.26,20.5-.11,14.22,1.24,28.4,1.29,42.62-7.53,1-15.08,1.82-22.64,2.68-7.21.23-14.33,1.78-21.57,1.31.31-16.19,1.41-32.34,1.36-48.53.52-7,.83-14,.79-21.06C130.31,424.2,131.47,417.84,131.32,411.41Z"/><path class="cls-5" d="M208.11,148c2,2.48,3.93,5.07,6.63,6.83,2.53,1.85,5.76,2.09,8.7,2.89.7,6.43-1.3,12.85-2.39,19.17-1.2-1.53-2.05-4-4.34-4-2.09-.33-4,.69-5.7,1.79.12-3,1.16-6,.87-9-.24-1.86-3-2.74-4-1.05-2.23,3.33-1.72,7.54-1.92,11.34-.57,3.05-2.08,6-1.73,9.21,1.15,4.1,5.93,5.12,9.38,6.53-5.26,7.8-14.09,14-23.83,13.6-7.28.43-14.11-2.8-20-6.81-1.69-1.37-3.81-1.67-5.43,0-2.4,5.68-2,12-1.77,18,.63,6.59.84,13.25,2.12,19.76,1,.5,2,1,3,1.54l1.05.71c-1.72.17-3.43.31-5.14.42-6.46-6-10.45-14-14.95-21.44-2-4.13-5.58-8.11-4.61-13,.87-5.12,1.58-10.33,1.08-15.53a6.3,6.3,0,0,0-3.25-3.85c-3.31.1-6.85,1.7-10,.1-5.77-2.62-8.32-10.31-5.43-15.92,2.55-5.73,8.74-10.17,15.2-9,4.32,1.58,5.16,8,10.05,8.57,3.52-.32,3.7-4.65,4.36-7.3,4.57.51,9.2,2.06,13.77.59,5.26-.93,9.36-4.58,13-8.21,2.67,1.49,5.52,3.49,8.76,2.91C198,155.94,203.11,151.76,208.11,148ZM194.5,162.52c-1.82,5.51-4.68,10.62-6.25,16.22a15.44,15.44,0,0,0,6.51,1.7c2.65.07,6.26.46,7.47-2.58-.52-3.53-2.53-6.58-3.87-9.82C197.28,166.07,196.79,163.45,194.5,162.52Zm-17.11,14.11c-.35,2.1,2.54,2.3,3.72,1.3,1.17-4.67,2.21-9.88-.26-14.33C177.23,166.78,177.58,172.22,177.39,176.63ZM132.2,166.1c0,.49,0,1.48-.07,2l-1.71,1.25c-.59,2.91-1,6.94,2.14,8.6,3.8,1.69,8.06.19,12.06.42l-.79-.25,1.52-2.46c-2.91-3.24-5.79-6.59-9.31-9.18C135,165.48,133.46,166.1,132.2,166.1Zm23.69,4.68c-6.6,2.63-6.11,14.25.84,16.17,4,1,7.84-.79,11.8-.8-1.36,4.83,2.85,8.87,6.72,11,5.94,3,13.89,4.87,19.62.45,2.72-1.8,3.12-5.71,1.37-8.32-2.11-3.64-6.58-4.35-10.14-5.88-4.61-1.79-10.18-3.71-14.9-1.31-.06-4.54-1-10.19-5.71-12.2C162.45,167.93,158.82,169.4,155.89,170.78Z"/><path class="cls-5" d="M240.5,190.79l2.09.39c-5.08,15.78-10.81,31.37-15.27,47.35-.78,2.22-1.43,4.61-3.11,6.35-.67-5.16,1.87-9.89,3.29-14.7C231.66,217,235.24,203.61,240.5,190.79Z"/><path class="cls-5" d="M252.39,221.78c2.31-3.8,6.36-6.26,10.56-7.47,3.93-.85,9.49-1.41,11.24,3.22,5.72,4.3,7.18,12,11.26,17.66,2.47,3,2.52,6.93,1.26,10.44-.89,4.67-2.29,9.24-2.82,14-.54,5.23-2.79,10.06-4.32,15-2.57,7.8-5.49,15.49-8.69,23-3.31,7.83-8.79,16.57-17.94,17.88-6.88,1.33-13-2.92-18.2-6.89-2.66-2.84-6.09-5.7-6.52-9.81-1.11-7.9-1.34-15.9-2.39-23.81,2-.48,4-.91,6-1.38,5.45-1.38,10.41-4.36,16-5a29.94,29.94,0,0,1-2.77,5.44c-3,4.52-5,9.63-6.81,14.71,1,.89,2.42,2.29,3.68.91,4.09-4.83,6-11.13,9.85-16.12,1.63-3.34,3-6.78,5-10a21.64,21.64,0,0,0,4-2.37l2.32,1.41c.14.49.41,1.47.54,1.95.31,1.07.62,2.14.93,3.23,1.05.84,1.53,3,3.27,2.41.64-.32,1.91-1,2.54-1.29a22.64,22.64,0,0,1-1.53-5.4c-.37-1.95-.58-3.94-1.09-5.85-2.72-1.9-6.35-1.08-9.48-1.62-.06-1.6-.1-3.2-.11-4.8a47.77,47.77,0,0,1,6.7-1.52c2.37-.69,6.75-1.59,5.11-5.07-4.22-1.62-8.81.46-13.18-.42,2.69-5.25,9.34-5.55,14.46-6.42.56-1.53.94-4.39-1.27-4.62-5.42-.29-10.57,2.15-16,2.07a8.92,8.92,0,0,1,5.91-7.71c2.8-1,5.8-.85,8.68-1.4.31-.59.61-1.19.88-1.79-4.86-2.8-10.5-1.59-15.78-1.57Z"/><path class="cls-5" d="M79.13,293c2.5-.58,5.09.3,7.6.57a127.14,127.14,0,0,0,20.32,2.16c-.27,2.93-2.85,4.51-4.74,6.41C94.13,309.84,89,320,81.42,328.25c-2.21,1.95-1.72,5.14-.77,7.6,11.82-9.13,17.13-24.39,29.64-32.84,5.55-5.59,13.93-7.49,21.55-6.29,1.76.42,3.85,1,4.7,2.75A7.4,7.4,0,0,1,134,304.3c-4.35-.42-9-1.85-13.11.29-1.27.85-.59,2.25-.36,3.43a47.11,47.11,0,0,1,14,2.35c.74,2.73-2,5.38-4.72,5.05-3.32-.15-6.79-.55-9.87,1,0,.74.12,2.22.15,3,4.31,1.59,9.24.47,13.29,3-1.24,4.3-6.46,2-9.66,2.64-2.23-.25-3,2.13-2.49,3.92,2.85.63,5.75,1,8.62,1.49,2.1.31,3.78,2.9,2.48,4.81-3.59,3-8.65.66-12.7,2.1-1.68,1.63-2,4.22-3.22,6.18-3.38,6-6.44,12.32-11,17.56a44.8,44.8,0,0,1-13.68,14.36c-3.28,1.64-7.12,3.62-10.85,2.47-8.43-4.08-13.44-13.27-14.52-22.3C65.18,334.05,72.36,313.21,79.13,293Z"/><path class="cls-6" d="M130.42,169.32l1.71-1.25c2.53,4.51,6.64,8.53,11.7,10l.79.25c-4-.23-8.26,1.27-12.06-.42C129.44,176.26,129.83,172.23,130.42,169.32Z"/><path class="cls-6" d="M155.89,170.78c2.93-1.38,6.56-2.85,9.6-.93,4.7,2,5.65,7.66,5.71,12.2a25.3,25.3,0,0,0-2.67,4.1c-4,0-7.85,1.75-11.8.8C149.78,185,149.29,173.41,155.89,170.78Z"/><path class="cls-6" d="M191.88,176.11c1.11-2.21,2.26-4.4,3.52-6.52a63.76,63.76,0,0,1,3.66,7.24C196.65,177,194.08,177.42,191.88,176.11Z"/><path class="cls-6" d="M211,174.74c1.68-1.1,3.61-2.12,5.7-1.79,2.29,0,3.14,2.45,4.34,4a72.08,72.08,0,0,1-7.16,15l-.26-.1c-3.45-1.41-8.23-2.43-9.38-6.53-.35-3.17,1.16-6.16,1.73-9.21A5.73,5.73,0,0,0,211,174.74Z"/><path class="cls-6" d="M173.43,186.45c1.59-2.39,4.93-1.3,7.14-.48,4.05,1.54,6.16,5.53,8,9.16-5.33.54-11.28-1.24-14.68-5.56A2.49,2.49,0,0,1,173.43,186.45Z"/><path class="cls-6" d="M162.62,216.62c-.23-6-.63-12.35,1.77-18,1.78,5.73,8.35,7.6,13.23,10-.47,5.68-1.29,11.33-1.26,17-1.09,4.89-4.3,9-7.33,12.91l-1.24-.58c-1-.53-2-1-3-1.54C163.46,229.87,163.25,223.21,162.62,216.62Z"/></g></g></svg>