<svg xmlns="http://www.w3.org/2000/svg" viewBox="0 0 214.86 214.86"><defs><style>.cls-1{fill:#fff;}.cls-2{fill:#bb91ff;}.cls-3{fill:#ffc569;}.cls-4{fill:#f8bdff;}.cls-5{fill:#b7ba6a;}.cls-6{fill:#f7ede5;}.cls-7{fill:#412945;}</style></defs><g id="Layer_2" data-name="Layer 2"><g id="OBJECTS"><path class="cls-1" d="M107.43,214.86a107.42,107.42,0,0,1-76-183.39A107.43,107.43,0,0,1,183.4,183.4,106.73,106.73,0,0,1,107.43,214.86Z"/><path class="cls-2" d="M210.83,107.43a104,104,0,0,1-3,24.73c-5.35,21.82-20,12.14-36.73,26.05-12.06,10-9.09,24.36-24.86,28.07-2.3.55-10.28,2.62-12.64,3-5.48.9-8,2.79-13.72,2.79-1,0-8.17,3.67-9.21,3.64-2.55-.08-4.79,3.69-7.29,3.43-4.11-.42-2-9-6-9.86-1.45-.32-22.14-7.76-23.57-8.14C51.13,175,38,187.35,24.34,169a103.4,103.4,0,1,1,186.49-61.54Z"/><path class="cls-3" d="M174.32,43.43c-1.41-.14-5.31-.75-6.41-1.79-.94-.89-1.87-6.38-2.24-9.62a.45.45,0,0,0-.9,0c0,.08-.1,7.48-1.61,9.64S156.36,44,156.3,44a.46.46,0,0,0-.43.44.45.45,0,0,0,.4.46c1.45.16,5.47.75,6.71,1.54,1.6,1,2.22,7.29,2.33,9.62a.45.45,0,0,0,.43.43h0a.45.45,0,0,0,.44-.41c.21-2.14.94-8,1.78-9.4,1-1.6,4.9-2.27,6.33-2.39a.45.45,0,0,0,.41-.45A.45.45,0,0,0,174.32,43.43Z"/><path class="cls-3" d="M43.81,97.22c-1.41-.15-5.3-.75-6.41-1.8-.93-.89-1.87-6.37-2.24-9.62a.45.45,0,0,0-.47-.4.47.47,0,0,0-.43.45c0,.07-.09,7.48-1.6,9.64s-6.81,2.34-6.86,2.34a.45.45,0,0,0,0,.9c1.45.16,5.47.75,6.71,1.54,1.6,1,2.22,7.29,2.32,9.61a.44.44,0,0,0,.44.43h0a.45.45,0,0,0,.45-.4c.21-2.15.93-8,1.78-9.4,1-1.6,4.89-2.27,6.32-2.39a.46.46,0,0,0,.42-.45A.46.46,0,0,0,43.81,97.22Z"/><path class="cls-1" d="M73.19,15.28c-17.93,0-32.47,10.93-32.47,24.43,0,6.72,3.62,12.81,9.46,17.23-.4,4.72-.59,12.35,1.47,18.12,0,0,.43-8.49,3.69-15a40.32,40.32,0,0,0,17.85,4c17.93,0,32.46-10.94,32.46-24.43S91.12,15.28,73.19,15.28Z"/><path class="cls-4" d="M72.44,37.51S68.8,22.94,64.72,25.94s2.36,25.71,2.36,25.71S88.94,40.94,86.8,34.94,72.44,37.51,72.44,37.51Z"/><path class="cls-5" d="M207.85,132.16A103.34,103.34,0,0,1,173.46,187l-26-61.14s6.43-35,17.68-31.18,15.43,33.75,15.43,33.75,7.07-26.36,17.36-19C203.39,113.4,206.31,123.54,207.85,132.16Z"/><path class="cls-5" d="M84.12,176.32l-3.84,30.9A103.55,103.55,0,0,1,24.34,169l-10-17.08s-5.78-22.83,5.15-25.4c10.76-2.53,24.64,34.23,25.06,35.34-.33-1.19-12.32-44.07,2.26-47.87C61.62,110.1,84.12,176.32,84.12,176.32Z"/><path class="cls-6" d="M173.46,187a102.79,102.79,0,0,1-42.2,21.07c-2.3.55-4.63,1-7,1.4a103.9,103.9,0,0,1-16.84,1.36c-1.05,0-2.09,0-3.13,0q-3.83-.12-7.57-.5a103.11,103.11,0,0,1-12.12-2c-1.46-.32-2.9-.68-4.33-1.07-2.76-11.34-9.76-41.14-10.71-55.51-1.18-18,7.09-33.56,11.35-46.09,1.32-3.88,2.36-6.86,3.18-9.12h0l0,0-.14-.08a27.82,27.82,0,0,1-5.34-3.84l0,0a27.09,27.09,0,0,1-6.25-8.62C70,79,77.61,75.49,77.61,75.49a6.13,6.13,0,0,1-.35-1.9,9.78,9.78,0,0,1,.64-3.93,14,14,0,0,1,1.48-2.91c-.23-5.78.41-7.67,3.31-8.39,2.71-.68,5.86-1.56,9.34.82,3.47-1.58,5-9.4,9.65-10.07l.22,0a46.22,46.22,0,0,1,6-.19,41.86,41.86,0,0,1,18,4.46c3.35-3,12.25-10.35,16.8-8.08,4.34,2.17,2.59,18.36,1.53,25.84q0,.33-.09.63c0,.12,0,.23-.05.34.8,1.58,1.39,2.94,1.8,4,.52,1.33.75,2.13.75,2.13a17.54,17.54,0,0,1-.79,1.89l0,0A33.85,33.85,0,0,1,135.53,92.3c.22,3.63.89,8.17,2.65,11.71.67,1.35.32,7.28,1.35,8.23,6.38,5.91,17.48,12.05,25.76,37.11,1.38,4.19,10.17,4.13,10.46,9C176.3,167.83,175.12,178.05,173.46,187Z"/><path class="cls-3" d="M101.9,49.09c-.44,4.06-2.06,15.6-7,20a13.21,13.21,0,0,1-12.29,3.31s.16,7.88-3.31,10.24c-2.18,1.49-5.17,1.48-7.09,1.26a26.07,26.07,0,0,1-2.44-9,36.28,36.28,0,0,1,4.5-9.35c-.23-5.78-.39-18.29,2.51-19,2.71-.68,9.2,3.4,12.67,5.78A38,38,0,0,1,101.9,49.09Z"/><path class="cls-3" d="M107.84,58.05a9.45,9.45,0,0,0,1.71,10.57c2.14,2.15,5.19,3.12,7.6,5,1.69,1.31,3.08,3.07,5,3.93a7.61,7.61,0,0,0,8.06-1.67,10.88,10.88,0,0,0,3.1-7.9,14.11,14.11,0,0,0-6.57-11.78C121.14,52.67,111.47,50.78,107.84,58.05Z"/><path class="cls-3" d="M175.75,158.36a19,19,0,0,1-6.08,4.59,9.36,9.36,0,0,1-2.95.91,9.7,9.7,0,0,1-4-.54,20.58,20.58,0,0,1-14-18.79c0-2.65.44-5.28.44-7.92s-.57-5.43-2.36-7.37c-1.46-1.58-3.56-2.42-5.12-3.89a13,13,0,0,1-3.33-6.37,31.18,31.18,0,0,1-.28-14.47c0-.17.07-.34.11-.5a11.78,11.78,0,0,0,2.53,3.5c6.38,5.91,24.34,12.06,32.62,37.11A54.72,54.72,0,0,1,175.75,158.36Z"/><path class="cls-3" d="M74.86,137.34a7,7,0,0,0,3.65,4.83,6.35,6.35,0,0,0,6.4-1.4,15.77,15.77,0,0,0,3.75-5.71c2-4.61,5.25-21.59-5-19.17C76.7,117.52,73.3,131.51,74.86,137.34Z"/><path class="cls-7" d="M85.8,97.59s8.35,3.62,21.11,3a60.11,60.11,0,0,0,23.17-6.3s-13.55,12-25.53,12.29S85.8,97.59,85.8,97.59Z"/><path class="cls-7" d="M82.43,65a.59.59,0,0,1-.36-1.07c1.17-.8,3.23-1.57,6.32-.54a13,13,0,0,1,4.17,2.29.58.58,0,0,1-.66,1,12,12,0,0,0-4-1.3A34.85,34.85,0,0,0,82.43,65Z"/><path class="cls-7" d="M121.31,64.42c.66,0,1-.74.44-1.05-1.29-.75-3.57-1.44-7.06-.36A16.5,16.5,0,0,0,110,65.35c-.63.45,0,1.27.72.92a15.67,15.67,0,0,1,4.45-1.37A45.88,45.88,0,0,1,121.31,64.42Z"/><path class="cls-7" d="M130.19,56.39a.63.63,0,0,1-.44-.19.62.62,0,0,1,0-.89c.85-.83,8.36-8.12,12.45-7.62a.62.62,0,0,1,.55.7.63.63,0,0,1-.7.55c-3-.36-9.24,5.12-11.41,7.27A.66.66,0,0,1,130.19,56.39Z"/><path class="cls-7" d="M84.46,54.5a.63.63,0,0,1-.49-.24c-2.33-2.89-7.44-4.5-7.49-4.52a.64.64,0,0,1-.42-.79.63.63,0,0,1,.79-.41c.23.07,5.53,1.75,8.1,4.93a.63.63,0,0,1-.09.89A.67.67,0,0,1,84.46,54.5Z"/><path class="cls-7" d="M117.2,73.4a.63.63,0,0,0-.88.16s-3.34,4.71-7.12,4c-3.4-.62-6.43-5.21-7.15-6.38a13,13,0,0,0,3.18-2.55.64.64,0,0,0,0-.89.63.63,0,0,0-.89,0,12.88,12.88,0,0,1-3,2.4A32.26,32.26,0,0,1,98.7,68a.63.63,0,0,0-.89.07.62.62,0,0,0,.07.88,34.21,34.21,0,0,0,2.76,2.21c-.65,1.09-3.3,5.24-6.3,6.26-3.17,1.07-5.68-3.37-5.71-3.42a.63.63,0,0,0-.86-.24.62.62,0,0,0-.24.85c.12.22,3,5.41,7.22,4,3-1,5.53-4.52,6.6-6.2,1.18,1.8,4.13,5.73,7.62,6.37a5.92,5.92,0,0,0,1,.09c4.09,0,7.23-4.43,7.38-4.63A.65.65,0,0,0,117.2,73.4Z"/><path class="cls-7" d="M154.7,74.08l.19,0a.63.63,0,0,0,.19-1.23,68,68,0,0,0-10.93-2.39c-1.72-3.1-3.6-6-4-6.57a.63.63,0,1,0-1,.69c1.07,1.63,2.33,3.67,3.48,5.68a82.69,82.69,0,0,0-18.16-.15.63.63,0,0,0,.16,1.25,81.21,81.21,0,0,1,18.76.26c.71,1.32,1.35,2.58,1.82,3.66a118.38,118.38,0,0,0-20-1.75.63.63,0,1,0,0,1.26,115.48,115.48,0,0,1,20.47,1.87,4.19,4.19,0,0,1,.28,1.47c-.21,2.63-10.49,13.35-12.88,14.49a.63.63,0,0,0,.27,1.2.55.55,0,0,0,.28-.07c2.6-1.23,13.32-12.24,13.59-15.52a4.35,4.35,0,0,0-.17-1.29A57.52,57.52,0,0,1,154.56,79a.76.76,0,0,0,.21,0,.63.63,0,0,0,.22-1.22,60.75,60.75,0,0,0-8.36-2.26,36,36,0,0,0-1.73-3.72A65.33,65.33,0,0,1,154.7,74.08Z"/><path class="cls-7" d="M85.16,69.44A75.43,75.43,0,0,0,73,69.1c1.8-2.93,3.89-5.58,3.92-5.63a.62.62,0,0,0-.1-.88.64.64,0,0,0-.89.1,64.17,64.17,0,0,0-4.42,6.46c-6,.2-11.6.6-12,.63a.64.64,0,0,0-.58.68.63.63,0,0,0,.63.58h0c.1,0,5.36-.39,11.21-.6a15.87,15.87,0,0,0-1.48,3.63c-5.34.93-10.12,2-10.51,2.11a.63.63,0,0,0,.14,1.24.36.36,0,0,0,.14,0c.09,0,4.78-1.09,10.08-2-.12,4.18,2.55,10.27,5.35,14,3,4,9,7.55,9.27,7.71a.61.61,0,0,0,.32.08.65.65,0,0,0,.54-.3.64.64,0,0,0-.22-.87c-.06,0-6.06-3.62-8.91-7.38-2.66-3.51-5.32-9.58-5.08-13.42,5-.84,10.28-1.47,12.59-1A.63.63,0,1,0,83.3,73c-2.42-.56-7.63,0-12.63.85a18.24,18.24,0,0,1,1.57-3.45c5-.16,10.13-.17,12.7.29a.63.63,0,0,0,.73-.52A.62.62,0,0,0,85.16,69.44Z"/><path class="cls-7" d="M84.18,207.92a.64.64,0,0,1-.61-.47L73,167.41a.63.63,0,1,1,1.21-.32l10.55,40a.63.63,0,0,1-.45.77Z"/><path class="cls-7" d="M96.73,210.19a.64.64,0,0,1-.63-.62l-.45-43a.64.64,0,0,1,.62-.64.63.63,0,0,1,.64.63l.45,43a.62.62,0,0,1-.62.63Z"/><path class="cls-7" d="M104.3,210.69a.63.63,0,0,1-.63-.62l-.46-44.18a.63.63,0,0,1,1.26,0l.46,44.18a.63.63,0,0,1-.62.63Z"/><path class="cls-7" d="M124,209.52a.78.78,0,0,1-.21,0,.62.62,0,0,1-.38-.8l16.44-46.17a.63.63,0,1,1,1.19.42L124.58,209.1A.64.64,0,0,1,124,209.52Z"/><path class="cls-7" d="M131.4,208.12h-.12a.64.64,0,0,1-.5-.74,135.35,135.35,0,0,1,9.5-29.79c5.95-12.64,17.85-15,22.69-15.4a20.67,20.67,0,0,1,2.73-.09.63.63,0,1,1-.06,1.26,18.2,18.2,0,0,0-2.56.09c-4.62.4-16,2.63-21.66,14.67a133.76,133.76,0,0,0-9.4,29.5A.63.63,0,0,1,131.4,208.12Z"/><path class="cls-7" d="M97,129.41a.62.62,0,0,1-.56-.34,26.37,26.37,0,0,1-2.43-6.8.63.63,0,0,1,1.25-.21,25.29,25.29,0,0,0,2.3,6.44.63.63,0,0,1-.28.85A.71.71,0,0,1,97,129.41Z"/><path class="cls-7" d="M99.12,124.69a.64.64,0,0,1-.57-.35,38,38,0,0,1-2.18-7.25.63.63,0,0,1,1.24-.25,37.16,37.16,0,0,0,2.07,6.94.63.63,0,0,1-.28.84A.58.58,0,0,1,99.12,124.69Z"/><path class="cls-7" d="M101.24,119.72a.63.63,0,0,1-.54-.31,13.89,13.89,0,0,1-1.5-7,.63.63,0,1,1,1.25.08,12.83,12.83,0,0,0,1.34,6.26.64.64,0,0,1-.23.86A.61.61,0,0,1,101.24,119.72Z"/></g></g></svg>