<svg xmlns="http://www.w3.org/2000/svg" viewBox="0 0 214.83 214.83"><defs><style>.cls-1{fill:#fff;}.cls-2{fill:#bb91ff;}.cls-3{fill:#f8bdff;}.cls-4{fill:#412945;}.cls-5{fill:#ffa291;}.cls-6{fill:#e05d4f;}.cls-7{fill:#f7ede5;}</style></defs><g id="Layer_2" data-name="Layer 2"><g id="OBJECTS"><path class="cls-1" d="M107.42,214.83a107.42,107.42,0,0,1-76-183.37A107.42,107.42,0,0,1,183.37,183.37,106.7,106.7,0,0,1,107.42,214.83Z"/><path class="cls-2" d="M210.79,107.42a103.09,103.09,0,0,1-31.7,74.5c-2.86,2.75-13.5-21.82-16.67-19.41-17.38,13.25-23.71,9.32-47.25,9.32-20.63,0-41.39,8.49-57.52-1.93-5-3.25-16,17.51-20.37,13.47a103.38,103.38,0,1,1,173.51-75.95Z"/><path class="cls-3" d="M181.28,158.55c0,6.93-1.51,18.45-2.19,23.37a104.82,104.82,0,0,1-9.05,7.76,103.47,103.47,0,0,1-118.61,4.66,104.68,104.68,0,0,1-14.15-11c-2.43-7.83-5.28-20.49-3.73-33.5,2-16.43,13.22-47.43,29.64-64.77,4.78-5,10-8.94,15.56-11,24.62-9,60.86,1.5,60.86,1.5a51.65,51.65,0,0,1,10.51,6.93h0A69.09,69.09,0,0,1,170.54,111C180.64,137,181.28,149.55,181.28,158.55Z"/><path class="cls-2" d="M132.08,113.12a10,10,0,0,0-1.89,4.47,12.09,12.09,0,0,0-.1,5.48c.31,1.25,1.1,2.56,2.37,2.77a3.12,3.12,0,0,0,2.56-1c.7-.64,1.22-1.44,1.88-2.13a7.77,7.77,0,0,1,4.89-2.34c1.11-.09,2.33,0,3.23-.62a3.27,3.27,0,0,0,1-3.23,6.9,6.9,0,0,0-3.78-4.7C139.06,110.23,134.53,110.18,132.08,113.12Z"/><path class="cls-2" d="M145.08,105.12c-.33,1.86-1.65,3.18-3,2.95s-2.11-1.93-1.78-3.79,1.66-3.17,3-2.94S145.41,103.27,145.08,105.12Z"/><path class="cls-2" d="M135.93,103.82c.42,1.84-.29,3.57-1.58,3.87s-2.69-1-3.12-2.79.29-3.58,1.58-3.88S135.5,102,135.93,103.82Z"/><path class="cls-2" d="M128.25,107c1.49,1.17,2,3,1.21,4s-2.69,1-4.18-.21-2-3-1.21-4S126.76,105.81,128.25,107Z"/><path class="cls-2" d="M125.91,115.17c1.49,1.16,2,3,1.21,4s-2.69,1-4.17-.21-2-3-1.21-4S124.43,114,125.91,115.17Z"/><path class="cls-4" d="M51.54,193.9h-.08a.63.63,0,0,1-.55-.7,39.18,39.18,0,0,1,1.64-7.2c1.72-5.39,2.09-13.45,1.25-27.84-.85-14.62-1.28-27.31-1.28-27.44a.63.63,0,0,1,.6-.65.62.62,0,0,1,.65.61c0,.13.44,12.81,1.29,27.41s.46,22.75-1.32,28.3a38,38,0,0,0-1.58,7A.63.63,0,0,1,51.54,193.9Z"/><path class="cls-4" d="M169.68,189.59h0a.63.63,0,0,1-.6-.65,47.13,47.13,0,0,0-.43-9.37,84.27,84.27,0,0,0-3.77-13.38,107.18,107.18,0,0,1-5-18.55,172.94,172.94,0,0,1-1.72-25.17.63.63,0,0,1,1.26,0,170.85,170.85,0,0,0,1.71,25,104,104,0,0,0,5,18.34,85,85,0,0,1,3.82,13.58,48.9,48.9,0,0,1,.45,9.62A.62.62,0,0,1,169.68,189.59Z"/><path class="cls-4" d="M85.46,106.26c1.05.35,1.58.86,1.59,1.51a5.45,5.45,0,0,1-.67,2.43q-.7,1.45-1.2,1.47a.56.56,0,0,1-.33-.14,2.43,2.43,0,0,0-.84-.32,5.26,5.26,0,0,0-1.14-.15,3.3,3.3,0,0,0-2.58,1.22,5.32,5.32,0,0,0-.89,3.53,5.12,5.12,0,0,0,1.11,3.47,3.33,3.33,0,0,0,2.62,1.08,6.91,6.91,0,0,0,1.43-.23,2.21,2.21,0,0,0,1.11-.54.32.32,0,0,1,.23-.06c.11,0,.32.2.64.61a7.08,7.08,0,0,1,.9,1.62,4.72,4.72,0,0,1,.43,1.57c0,.72-.52,1.31-1.63,1.77a10.92,10.92,0,0,1-3.94.75,7.83,7.83,0,0,1-6.13-2.43q-2.43-2.52-2.57-7.26a10.72,10.72,0,0,1,2.24-7.5,7.85,7.85,0,0,1,6-2.87A10.31,10.31,0,0,1,85.46,106.26Z"/><path class="cls-4" d="M91.42,115.19a5.07,5.07,0,0,1-.85-2.26,1.19,1.19,0,0,1,.45-1.14,11.16,11.16,0,0,1,4.35-.82c1.85,0,3.16.35,3.95,1.19a5.68,5.68,0,0,1,1.25,3.81l.12,4.41,1,0a.8.8,0,0,1,.75.54,3.65,3.65,0,0,1,.31,1.53,4.2,4.2,0,0,1-.43,1.93,1.49,1.49,0,0,1-1.3,1,3.54,3.54,0,0,1-2.45-.74,2.3,2.3,0,0,1-.67-.79,4.77,4.77,0,0,1-3.94,1.72,4.55,4.55,0,0,1-3.47-1.35,4.78,4.78,0,0,1-1.49-3.4c-.09-3,1.69-4.6,5.31-4.69l1.54,0v-.28a1.25,1.25,0,0,0-.26-.92,1.81,1.81,0,0,0-1.11-.18A14.14,14.14,0,0,0,91.42,115.19Zm2.37,5.07a1.2,1.2,0,0,0,.36.92,1.18,1.18,0,0,0,.86.3,1.32,1.32,0,0,0,.92-.44l-.05-2.15-.79,0A1.17,1.17,0,0,0,93.79,120.26Z"/><path class="cls-4" d="M110.78,124.62c0,.23-.78.36-2.34.4-1.86,0-2.79-.12-2.8-.28l-.27-9.88-1.42,0c-.37,0-.58-.63-.61-1.91a9.46,9.46,0,0,1,.06-1.23c0-.49.18-.73.39-.74l1.47,0-.06-2.45c0-.38.77-.58,2.34-.63s2.36.09,2.37.38l0,1.79.05.78,2.37-.06c.32,0,.49.63.53,1.94s-.11,2-.42,2l-2,.06Z"/><path class="cls-4" d="M80,148.94c0,.16-.94.27-2.84.33-1.49,0-2.23,0-2.24-.17l-.52-19c0-.28.89-.44,2.7-.49,1.58,0,2.37.08,2.38.21Z"/><path class="cls-4" d="M83.69,147.41a9,9,0,0,1-.3-10.66A6,6,0,0,1,88,134.7a6,6,0,0,1,4.74,1.8,9.06,9.06,0,0,1,.3,10.65,6.68,6.68,0,0,1-9.39.26Zm4.49-8q-1.58,0-1.5,2.61c0,1.71.59,2.55,1.65,2.52s1.55-.9,1.5-2.61S89.24,139.33,88.18,139.36Z"/><path class="cls-4" d="M95.36,134.86c-.06-.15.81-.24,2.61-.29a10.15,10.15,0,0,1,2.69.06l2.27,9.43,1.25-9.38q.07-.26,2.76-.33c1.8,0,2.68,0,2.63.15L106,148.25c-.13.19-1.23.32-3.32.37s-3.2-.05-3.36-.32Z"/><path class="cls-4" d="M121.89,147.26a8.83,8.83,0,0,1-4.49,1.15,6.32,6.32,0,0,1-4.71-1.75,7,7,0,0,1-2-5.17,7.75,7.75,0,0,1,1.68-5.42,5.93,5.93,0,0,1,4.56-2.16,6.08,6.08,0,0,1,4.35,1.3,4.58,4.58,0,0,1,1.62,3.42q.12,4.53-5.07,4.66l-1.92.06a1.29,1.29,0,0,0,.49,1.14,2.37,2.37,0,0,0,1.36.29,8.15,8.15,0,0,0,3.69-1s.1.11.26.39a4.39,4.39,0,0,1,.73,2A1.08,1.08,0,0,1,121.89,147.26Zm-3.7-8a1,1,0,0,0-1.18-1.14,1.38,1.38,0,0,0-.9.35,1.17,1.17,0,0,0-.35.94l0,.87,1.51-.05A.83.83,0,0,0,118.19,139.29Z"/><path class="cls-4" d="M131,147.73c0,.13-.84.22-2.54.27a7.49,7.49,0,0,1-2.54-.15l-.25-9.27-.76,0a.77.77,0,0,1-.72-.52,3.13,3.13,0,0,1-.31-1.35q-.08-3,1.71-3.06a3,3,0,0,1,2.11.71,2.34,2.34,0,0,1,.89,1.72,4.75,4.75,0,0,1,1.52-1.87,3.58,3.58,0,0,1,2-.74c1.07,0,1.73.23,2,.78a1.83,1.83,0,0,1,.1.66,7.49,7.49,0,0,1-.22,1.55,6.89,6.89,0,0,1-.5,1.64c-.18.34-.28.51-.32.51a3.56,3.56,0,0,1-.52-.2,2,2,0,0,0-.83-.18c-.71,0-1.05.58-1,1.7Z"/><path class="cls-4" d="M136.43,142.59a7.71,7.71,0,0,0,3.6,1.27c.56,0,.84-.22.83-.61s-.51-.63-1.48-1.05c-2.36-.88-3.56-2.41-3.62-4.56a3.67,3.67,0,0,1,1.42-3.2,6,6,0,0,1,3.58-1.19,12.76,12.76,0,0,1,3.59.35c1,.27,1.48.65,1.49,1.14a5.28,5.28,0,0,1-1.34,2.74,5.4,5.4,0,0,0-2.62-.6c-.5,0-.75.2-.74.55a.74.74,0,0,0,.31.57,5.3,5.3,0,0,0,1.09.55q.79.33,1.32.6a7.47,7.47,0,0,1,1.18.75,3.35,3.35,0,0,1,1.41,2.72,4.7,4.7,0,0,1-1.38,3.65,6.34,6.34,0,0,1-4.42,1.51,9.56,9.56,0,0,1-3.62-.57c-1.09-.42-1.65-1-1.67-1.8a4,4,0,0,1,.33-1.66A2.75,2.75,0,0,1,136.43,142.59Z"/><path class="cls-4" d="M83,172.35c.07,2.72,1.13,4,3.18,4a6.45,6.45,0,0,0,3.3-.88c.42,0,.78.69,1.08,2.11a19.22,19.22,0,0,1,.47,2.89,1.63,1.63,0,0,1-.18,1,11.36,11.36,0,0,1-6,1.53,8.62,8.62,0,0,1-6.58-2.66,10.91,10.91,0,0,1-2.89-7.69,11.7,11.7,0,0,1,2.42-8,8.84,8.84,0,0,1,6.94-3.22c2.92-.08,5,.57,6.14,2a2.16,2.16,0,0,1,.41,1.34A9.81,9.81,0,0,1,91,166.9c-.45,1.78-1.08,2.82-1.87,3.12a2.37,2.37,0,0,1-.48.06,1.26,1.26,0,0,1-.78-.48c-1.11-1-2-1.57-2.64-1.55a2,2,0,0,0-1.65,1A5.7,5.7,0,0,0,83,172.35Z"/><path class="cls-4" d="M101.62,181.82c0,.25-1.41.41-4.23.49-2.22,0-3.33-.05-3.33-.25l-.78-28.27c0-.42,1.33-.66,4-.74,2.35,0,3.53.13,3.54.32Z"/><path class="cls-4" d="M104.59,161.54c0-.31,1.18-.49,3.56-.56s3.58.06,3.58.36l.34,12.13c0,1.38.5,2.06,1.38,2a4,4,0,0,0,2.22-.94l-.37-13.32c0-.28,1.17-.45,3.52-.52s3.54.05,3.54.32l.38,13.62,1.08,0c.94,0,1.43.86,1.48,2.66a7.19,7.19,0,0,1-.5,2.8q-.78,1.85-2.19,1.89a4.44,4.44,0,0,1-4.18-2.17l0,0a8.07,8.07,0,0,1-5.38,2.39q-4,.12-6-1.85t-2.09-6.61Z"/><path class="cls-4" d="M127.36,152.48c0-.33,1.19-.53,3.58-.6s3.6.08,3.61.44l.22,8.06a16.11,16.11,0,0,1,2.52-.4q8.73-.24,9,9.77.15,5.56-2.44,8.64c-1.74,2.06-4.24,3.13-7.52,3.22a14.27,14.27,0,0,1-8.22-2Zm9,14A2.43,2.43,0,0,0,135,167l.22,7.93a3,3,0,0,0,1.23.22,2.17,2.17,0,0,0,1.29-.53c.76-.58,1.12-1.88,1.06-3.9Q138.63,166.43,136.31,166.49Z"/><path class="cls-5" d="M136.17,34.59,136,32.88c-1-10.65-9.81-17.35-20.71-17.35A20.89,20.89,0,0,0,113,57.19a11.89,11.89,0,0,0,.65,1.62c3.53,7.28,12.1,6.85,18.53,2.67S136.17,34.59,136.17,34.59Z"/><path class="cls-4" d="M140.45,84.2a26,26,0,0,0-4.86-7.1,16.35,16.35,0,0,1,1.23,7.15L78,84.93a31.18,31.18,0,0,1,.42-8.83A15.43,15.43,0,0,0,74.07,85l-12.82.14c-3.14-9.14,8-12.42,11-14.85s-1.71-4,2.43-13.57,14-6.29,15.57-8.29a3,3,0,0,0,.6-1.75c-1.18-2.85-3.63-10.32-1.28-18.39C92.57,18,101.57,14,115,13.92A24.59,24.59,0,0,1,135,24.1a30,30,0,0,1-5,11.57,17.55,17.55,0,0,1-10.61,6.53s-10.17,1.71-8,6.43,8.17,2.18,11.64,4.78c4,3,2.71,9.29,3.71,11.57s9.22.71,15.61,5c6.1,4.07,8.25,14.14,8.25,14.14Z"/><path class="cls-5" d="M119.67,45s-5.14-6.22-8.57-4.18-2.57,9.21.54,11,7.18-.85,7.18-.85Z"/><path class="cls-6" d="M132.32,50.16a4.54,4.54,0,1,1-4.54-4.53A4.54,4.54,0,0,1,132.32,50.16Z"/><path class="cls-4" d="M133.28,43.75a1.81,1.81,0,1,1-1.77-2.19A2,2,0,0,1,133.28,43.75Z"/><path class="cls-4" d="M135.44,52.7a5.35,5.35,0,0,1-4-2.37.62.62,0,0,1,.17-.87.63.63,0,0,1,.87.18h0S134,51.83,136,51.37a.63.63,0,1,1,.28,1.23A3.81,3.81,0,0,1,135.44,52.7Z"/><path class="cls-4" d="M129.1,40.61a.56.56,0,0,1-.25,0,.63.63,0,0,1-.33-.82,3.6,3.6,0,0,1,3.82-2.16.63.63,0,1,1-.2,1.24,2.38,2.38,0,0,0-2.46,1.42A.65.65,0,0,1,129.1,40.61Z"/><path class="cls-4" d="M115.46,49.12a.63.63,0,0,1-.6-.45,7.85,7.85,0,0,0-3.93-4.89.63.63,0,0,1-.34-.82.64.64,0,0,1,.83-.34,9,9,0,0,1,4.64,5.68.63.63,0,0,1-.42.79Z"/><polygon class="cls-4" points="115.71 39.2 118.82 46.38 124.28 38.77 121.17 33.84 115.71 39.2"/><path class="cls-6" d="M165.5,58.25s-5.73-13.88-9.32-10.32S162.26,73,162.26,73s20.06-13.79,17.07-19.41S165.5,58.25,165.5,58.25Z"/><path class="cls-6" d="M181.35,130.25s-5.73-13.89-9.32-10.32S178.12,145,178.12,145s20.06-13.79,17.06-19.41S181.35,130.25,181.35,130.25Z"/><path class="cls-6" d="M60.79,35.05S47.24,28.57,47,33.62,68.28,48.19,68.28,48.19,74,24.52,68,22.35,60.79,35.05,60.79,35.05Z"/><path class="cls-6" d="M26.3,107.26s-13.55-6.48-13.84-1.43S33.78,120.4,33.78,120.4s5.67-23.67-.32-25.84S26.3,107.26,26.3,107.26Z"/><path class="cls-7" d="M46.18,71.55a4.93,4.93,0,1,1-4.93-4.92A4.92,4.92,0,0,1,46.18,71.55Z"/><path class="cls-7" d="M156.74,28.06A4.72,4.72,0,1,1,152,23.35,4.71,4.71,0,0,1,156.74,28.06Z"/><path class="cls-7" d="M193.59,95.55a4.5,4.5,0,1,1-4.49-4.5A4.49,4.49,0,0,1,193.59,95.55Z"/><path class="cls-7" d="M38.47,158.33a4.72,4.72,0,1,1-4.71-4.71A4.71,4.71,0,0,1,38.47,158.33Z"/></g></g></svg>