<svg xmlns="http://www.w3.org/2000/svg" viewBox="0 0 214.86 214.86"><defs><style>.cls-1{fill:#fff;}.cls-2{fill:#8baff7;}.cls-3{fill:#412945;}.cls-4{fill:#f7ede5;}.cls-5{fill:#f8bdff;}.cls-6{fill:#7a7d9e;}</style></defs><g id="Layer_2" data-name="Layer 2"><g id="OBJECTS"><path class="cls-1" d="M107.43,214.86a107.42,107.42,0,0,1-76-183.39A107.43,107.43,0,0,1,183.4,183.4,106.73,106.73,0,0,1,107.43,214.86Z"/><circle class="cls-2" cx="107.43" cy="107.43" r="103.39" transform="translate(-44.5 107.43) rotate(-45)"/><path class="cls-3" d="M51.69,50.67l-5.82-6.82L44.51,45c-.21.18-.6,0-1.16-.44a6.92,6.92,0,0,1-.76-.77,6.81,6.81,0,0,1-.64-.88c-.38-.62-.46-1-.25-1.21l6.44-5.49c.22-.18.6,0,1.15.45a6.22,6.22,0,0,1,.78.76,5.92,5.92,0,0,1,.62.89c.39.61.48,1,.26,1.2l-1.28,1.09,5.81,6.83,1.34-1.15c.22-.18.61,0,1.17.44a5,5,0,0,1,.77.75,6.56,6.56,0,0,1,.63.89c.38.63.46,1,.24,1.22l-6.46,5.5c-.21.19-.6,0-1.14-.45a5.51,5.51,0,0,1-.78-.75,5.71,5.71,0,0,1-.62-.89c-.4-.62-.48-1-.27-1.2Z"/><path class="cls-3" d="M68.65,43.41c.08.13-.61.64-2.07,1.54-1.15.69-1.76,1-1.82.88l-9-14.6c-.13-.21.5-.75,1.89-1.6s1.89-1,2-.91Z"/><path class="cls-3" d="M70.61,40.76a6.9,6.9,0,0,1-3.47-3.68,6.94,6.94,0,0,1-.63-5,5.47,5.47,0,0,1,3.1-3.38,5.38,5.38,0,0,1,4.57-.23,6.93,6.93,0,0,1,3.46,3.68,7,7,0,0,1,.64,5,6,6,0,0,1-7.67,3.61Zm.8-8.28q-1.27.6-.3,2.7c.66,1.4,1.42,1.89,2.28,1.49s1-1.31.3-2.7S72.27,32.07,71.41,32.48Z"/><path class="cls-3" d="M76.86,25.74c-.08-.11.65-.41,2.2-.88a9.24,9.24,0,0,1,2.36-.58L85.64,32l-1.15-8.47c0-.16.78-.47,2.32-.94s2.33-.63,2.32-.49l.18,12.81c-.07.2-1,.57-2.8,1.11s-2.8.72-3,.52Z"/><path class="cls-3" d="M102.76,31.83a8,8,0,0,1-3.89,1.54,5.78,5.78,0,0,1-4.42-1A6.37,6.37,0,0,1,92,27.93a7,7,0,0,1,.9-5,5.4,5.4,0,0,1,3.84-2.45,5.49,5.49,0,0,1,4,.68A4.15,4.15,0,0,1,102.65,24c.41,2.69-.92,4.27-4,4.74L96.92,29a1.22,1.22,0,0,0,.57,1,2.13,2.13,0,0,0,1.25.1,7.34,7.34,0,0,0,3.19-1.31s.11.09.28.32a3.83,3.83,0,0,1,.87,1.71A1,1,0,0,1,102.76,31.83Zm-4.22-6.72a.92.92,0,0,0-1.18-.88,1.13,1.13,0,0,0-.76.41,1,1,0,0,0-.21.88l.12.77,1.34-.2A.75.75,0,0,0,98.54,25.11Z"/><path class="cls-3" d="M120.73,32.56q0,.18-2.16,0c-1.43-.11-2.14-.24-2.13-.4l.59-7.3c.07-.84-.18-1.28-.73-1.32a2.11,2.11,0,0,0-1.17.46l-.65,8c0,.17-.73.2-2.16.08s-2.14-.26-2.13-.45l.66-8.21-.62-.05c-.56,0-.79-.64-.69-1.79a4.54,4.54,0,0,1,.42-1.56,1.4,1.4,0,0,1,1.4-1,3.49,3.49,0,0,1,1.71.62,2.31,2.31,0,0,1,.94,1,5.13,5.13,0,0,1,3.56-1.1,4.06,4.06,0,0,1,3,1.43,4.81,4.81,0,0,1,3.36-.92q4.14.33,3.74,5.38L127,33.07q0,.16-2.16,0c-1.43-.12-2.14-.25-2.12-.4l.58-7.3q.11-1.26-.72-1.32a2,2,0,0,0-1.2.45Z"/><path class="cls-3" d="M130.75,21.48c0-.18.81-.06,2.29.34s2.22.7,2.23.88l.17,6.21,3.26-5.32c.1-.11.62,0,1.56.22q3.23.89,3,1.17L133.08,39.65c0,.09-.49,0-1.36-.22s-1.66-.49-2.39-.75-1.07-.43-1-.5l3.51-4.52Z"/><path class="cls-3" d="M151.36,35.29c-.73,1.47-.54,2.48.58,3a3.83,3.83,0,0,0,2,.47c.23.11.22.59,0,1.43a13.3,13.3,0,0,1-.56,1.69,1.09,1.09,0,0,1-.39.5,6.85,6.85,0,0,1-3.64-.88,5.18,5.18,0,0,1-2.77-3.29,6.6,6.6,0,0,1,.63-4.94,7.05,7.05,0,0,1,3.57-3.61,5.36,5.36,0,0,1,4.63.23c1.59.79,2.5,1.72,2.74,2.79a1.28,1.28,0,0,1-.16.83,5.44,5.44,0,0,1-.77,1.1c-.74.83-1.37,1.21-1.88,1.15a1.27,1.27,0,0,1-.27-.11c-.12-.06-.21-.21-.29-.48a2.78,2.78,0,0,0-1-1.58,1.28,1.28,0,0,0-1.19.09A3.51,3.51,0,0,0,151.36,35.29Z"/><path class="cls-3" d="M160.36,36.87a4.5,4.5,0,0,1,.56-2.1c.29-.44.6-.64.92-.61a10.09,10.09,0,0,1,3.62,1.68,4.53,4.53,0,0,1,2.29,2.95,5.15,5.15,0,0,1-1.08,3.45l-2.22,3.3.71.47a.73.73,0,0,1,.27.79,3.19,3.19,0,0,1-.57,1.29,3.74,3.74,0,0,1-1.33,1.19,1.34,1.34,0,0,1-1.47,0,3.22,3.22,0,0,1-1.42-1.83,2.1,2.1,0,0,1-.07-.93,4.3,4.3,0,0,1-3.8-.8A4.11,4.11,0,0,1,154.93,43a4.33,4.33,0,0,1,.68-3.27q2.29-3.4,6.37-.67l1.15.77.14-.21a1.15,1.15,0,0,0,.29-.82c-.05-.18-.29-.42-.72-.71A13.57,13.57,0,0,0,160.36,36.87Zm-.92,5a1.13,1.13,0,0,0-.22.87,1,1,0,0,0,.48.66,1.13,1.13,0,0,0,.91.16l1.08-1.61-.58-.39A1.06,1.06,0,0,0,159.44,41.84Z"/><path class="cls-3" d="M168.66,54.41c-.13.15-.73-.23-1.8-1.16-1.22-1.15-1.78-1.78-1.68-1.9L171,44.62l-1-.84c-.26-.22,0-.76.76-1.64a7.32,7.32,0,0,1,.79-.78c.33-.29.56-.37.7-.25l1,.87,1.45-1.67c.22-.25.87.09,1.94,1s1.52,1.49,1.34,1.7L177,44.24l-.45.55,1.62,1.41c.21.18-.07.72-.84,1.61s-1.26,1.23-1.48,1l-1.34-1.18Z"/><path class="cls-4" d="M177.58,116.59S169,156.4,117.71,168.81c-42.39,10.25-75.39-21-75.39-21s10.76-6.69,13.73-18.41c-3.32-12.57,1.49-11.61,8.46-16.92s9.2-19.93,16.37-16.19c4.48-2.93,3.56-13.12,9.36-14.76.44-.12,2.79-3.48,3.24-3.6,1.57-.4.89-4,2.56-4.29l1.59-.26c.06,0,3.49,6.94,3.55,6.93,2-.3.67-7.47,2.63-7.6l2-.11c.47,0,2.71,5.34,3.17,5.33,1.58,0,5.49,1.56,7,1.62,5.36.23,8.8,3.59,13.5,4.86,4.91-6,7.29,5.56,16,10.26,8.19,4.41,15.73,3.5,16,15.48C169.4,119,177.58,116.59,177.58,116.59Z"/><path class="cls-5" d="M102.48,129.64s1.85-2.15,3.85-2.43a7.69,7.69,0,0,1,3.86.57s1-2,2.86-2a4.16,4.16,0,0,1,3,1.43l-5.29,4.14Z"/><path class="cls-6" d="M71.89,141.16c-15.39,9.45-29.57,6.62-29.57,6.62a106.4,106.4,0,0,1,3.24-20.67c-3.31-12.58-11.82-47.73-4.86-53S67.32,78.23,74.5,82a55.57,55.57,0,0,1,16.68-7.32A51.25,51.25,0,0,1,92.67,81C94.83,93.92,87.27,131.71,71.89,141.16Z"/><path class="cls-6" d="M177.58,116.59s-40.63,12.15-55.75-6.75c-9-11.28-13-26.72-14.65-37.31a69.45,69.45,0,0,1,19.75,2.36c4.91-6,20-23.33,28.78-18.63,8.18,4.41,9.76,31.82,10.06,43.8A90.09,90.09,0,0,1,177.58,116.59Z"/><ellipse class="cls-3" cx="86.82" cy="95.09" rx="3.06" ry="7.47"/><path class="cls-3" d="M121.32,88.35c1.64,3.68,1.66,7.24.05,8s-4.24-1.69-5.87-5.37-1.66-7.24,0-8S119.69,84.67,121.32,88.35Z"/><path class="cls-3" d="M93.75,87.71c-1.76.05-3.48-5-3.84-11.19,0-.51,0-1,0-1.51l1.32-.36c1.57-.4,3.19-.75,4.86-1,.11.88.2,1.81.26,2.77C96.66,82.6,95.51,87.68,93.75,87.71Z"/><path class="cls-3" d="M102.89,86.81c-1.72.46-3.9-4.14-4.88-10.27-.18-1.09-.3-2.17-.38-3.19l.18,0q3.06-.45,6-.65c.16.7.29,1.44.42,2.2C105.2,81,104.61,86.35,102.89,86.81Z"/><path class="cls-3" d="M111.13,87.62c-1.72.46-3.9-4.14-4.88-10.27a38.64,38.64,0,0,1-.46-4.78l1.39,0c1.58,0,3.14,0,4.66,0,.24,1,.45,2,.63,3.11C113.45,81.81,112.84,87.16,111.13,87.62Z"/><path class="cls-3" d="M89.08,122.49a6.17,6.17,0,1,1-6.17-6.17A6.16,6.16,0,0,1,89.08,122.49Z"/><path class="cls-3" d="M136,113.53a6.17,6.17,0,1,1-6.17-6.17A6.16,6.16,0,0,1,136,113.53Z"/><path class="cls-3" d="M139,112.19a.53.53,0,0,1-.32-1c2.39-1.63,7.25-4.52,10.77-4S163,110,167.89,111.09a.53.53,0,0,1-.06,1c-3.33.42-8.81.92-12.26.32C151.54,111.76,142.77,112,139,112.19Z"/><path class="cls-3" d="M75,125.07a.52.52,0,0,0,0-1c-2.79-.77-8.31-1.94-11.48-.3s-11.93,7-16.21,9.59a.53.53,0,0,0,.39,1c3.28-.69,8.64-2,11.71-3.65C63,128.71,71.39,126.14,75,125.07Z"/><path class="cls-3" d="M124.16,133a.63.63,0,0,0-.81.37s-1.7,4.36-5.6,4.62c-3.32.21-5.62-4.91-6.23-6.43l5.54-4.21a.63.63,0,1,0-.76-1l-5.7,4.32-8.53-1.5a.63.63,0,1,0-.22,1.24l8.31,1.47c.07,1.48,0,6.06-2.75,7.65-3.32,1.9-7.51-1.09-7.56-1.12a.61.61,0,0,0-.87.14.63.63,0,0,0,.13.88,11.2,11.2,0,0,0,5.81,2,6.19,6.19,0,0,0,3.12-.81c2.35-1.35,3.11-4.22,3.32-6.42,1.25,2.3,3.46,5.24,6.47,5,4.72-.3,6.62-5.22,6.7-5.43A.63.63,0,0,0,124.16,133Z"/><path class="cls-3" d="M130,127.44a.63.63,0,0,1-.19-1.23l57.81-18.27a.63.63,0,0,1,.79.41.62.62,0,0,1-.41.79l-57.81,18.27A.63.63,0,0,1,130,127.44Z"/><path class="cls-3" d="M130.84,129.48a.64.64,0,0,1-.63-.54.63.63,0,0,1,.54-.72l53.93-7.51a.63.63,0,0,1,.71.54.64.64,0,0,1-.54.71l-53.93,7.51Z"/><path class="cls-3" d="M30,146a.63.63,0,0,1-.62-.53.62.62,0,0,1,.52-.72L91.4,134.51a.62.62,0,0,1,.72.52.62.62,0,0,1-.51.72L30.05,146Z"/><path class="cls-3" d="M33,155.92a.63.63,0,0,1-.6-.45.62.62,0,0,1,.42-.78L90.25,138a.63.63,0,0,1,.78.43.64.64,0,0,1-.43.78L33.19,155.89A.57.57,0,0,1,33,155.92Z"/><path class="cls-3" d="M114.35,148.55c-2,0-4-2.3-4.25-2.57a.63.63,0,1,1,1-.82c.5.59,2.22,2.25,3.42,2.12,1-.1,1.75-2.25,2-3.27a.63.63,0,1,1,1.24.24c-.09.42-.88,4.07-3.08,4.29Z"/><path class="cls-5" d="M137.94,78.44s9.71-15.84,13.31-14.94,7.74,29,7.74,29S147.83,81.5,137.94,78.44Z"/><path class="cls-5" d="M48.49,114.43S58,97.16,65.23,91.76c0,0-16.38-14.76-21.06-12.06S48.49,114.43,48.49,114.43Z"/><path class="cls-5" d="M179.69,76.73S176.05,62.15,172,65.15s2.35,25.72,2.35,25.72,21.86-10.72,19.72-16.72S179.69,76.73,179.69,76.73Z"/><path class="cls-5" d="M21.5,111.22s-12.25-8.7-13.39-3.77,18.51,18,18.51,18,9.64-22.36,4.11-25.52S21.5,111.22,21.5,111.22Z"/><path class="cls-5" d="M113.59,188.2s-12.25-8.7-13.39-3.77,18.51,18,18.51,18,9.64-22.35,4.11-25.52S113.59,188.2,113.59,188.2Z"/><circle class="cls-4" cx="93.65" cy="53.85" r="4.5"/><circle class="cls-4" cx="196.84" cy="116.85" r="4.5"/><path class="cls-4" d="M63.76,179.53a4.5,4.5,0,1,1-4.5-4.5A4.49,4.49,0,0,1,63.76,179.53Z"/><path class="cls-4" d="M164.69,171.66a5,5,0,1,1-5-5A5,5,0,0,1,164.69,171.66Z"/></g></g></svg>