<svg xmlns="http://www.w3.org/2000/svg" viewBox="0 0 332.71 465.87"><defs><style>.cls-1{fill:#6fbe8a;}.cls-2{fill:#fdd961;}.cls-3{fill:#171511;}.cls-4{fill:#065848;}.cls-5{fill:#fea03e;}.cls-6{fill:#fdded5;}.cls-7{fill:#fbb9aa;}</style></defs><g id="Layer_2" data-name="Layer 2"><g id="Layer_1-2" data-name="Layer 1"><path class="cls-1" d="M64.07,202.18l.39-.09c1,3.64,3.07,6.95,3.58,10.75A27.18,27.18,0,0,1,64.07,202.18Z"/><path class="cls-2" d="M132.35,8.83C152.23,3.74,172.63.38,193.19.24c14.32-.43,28.67-.25,43,.29,4.95.78,10.09.26,14.93,1.77,12.94,3.15,26.16,7.37,36.45,16.13,5.37,3.15,9.22,8.11,13.69,12.34,6.44,8.05,12.5,16.51,16.81,25.92,3.05,7.87,5.78,15.84,8.26,23.91,2.44,12.29,5.21,24.59,5.49,37.19a178,178,0,0,1,0,36c.09,10.4-1.53,20.68-2.76,31a56.58,56.58,0,0,0-1.6,11.13c-7.2,36.85-17.07,73.33-32,107.87a456.6,456.6,0,0,1-45.9,85.39c-7.47,9.59-14.8,19.36-23,28.36q-1.7-15.88-3.14-31.78c-1.09-4.73,6.75-3.47,6.55-7.9s-1.57-8.62-1.52-13c-.07-14,.25-28-.24-42a84.32,84.32,0,0,1,.37-10.78c3.94,5.09,7.46,11.11,13.66,13.75,9.7,4.28,21.53,0,27.94-8,3.46-4.2,4.91-9.65,5.26-15,.73-11.64-.41-23.55-4.53-34.52-2.58-6.77-6.77-12.7-10.58-18.8-1.42-1.57-.31-3.51,0-5.25,1.23-3.79-.44-7.63-1.44-11.27a90.11,90.11,0,0,0-33.16-44.76c-2.7-2.14-6.27-4.52-6-8.42-.21-8.74-2.69-17.19-4.21-25.75a478.58,478.58,0,0,0-13.39-55.91c-3.8-11.07-8.39-23-18.27-30.06-6.54-4.8-15-3.74-22.6-3.69-5.14.06-10,1.94-15.13,2.23-3-1-5.76-2.82-8.88-3.63a48.1,48.1,0,0,0-32.88,2.93C85.53,73.65,71.3,91,66.69,110.81c-1.23,6-2.34,12.68-.11,18.59,2.78,4.1,8.35.84,12.06-.07-1.53,5.74-1.87,12.32,1.49,17.51,1.85,3.23,5.34,4.81,8.15,7C87.8,167.24,84,180.39,84,193.82c-.15,1.79.16,4-1.42,5.26-3.61,3.06-7.55,5.71-11,9-.92-3.08-1.88-6.15-2.82-9.22,2.85-4,4.91-9.09,3.75-14a11.08,11.08,0,0,0-4.69-6.44c-2.17-.69-4.51-.15-6.73-.15-1-2.61-1.79-5.32-2.73-8-.73-2.08-3.38-1.85-5.12-2.29-11-1.24-22-1.8-33-2.14L17.68,167c-.45-9.78,1-19.46,1.72-29.18s3-19.44,5.17-29A159.22,159.22,0,0,1,40.64,72.07C46.75,61.9,55.13,53.4,63.53,45.13c5.6-5.32,11.53-10.37,18.36-14,8-6,17.3-9.79,26.17-14.23,3.51-1.89,7.58-2.28,11.17-4C123.4,10.91,128.08,10.53,132.35,8.83Z"/><path class="cls-2" d="M192.67,201.69c-.17-2.3,1-4.29,2.16-6.19-1.83,12.73-2.72,25.86.21,38.5l1.85.82c.21,2.2.5,4.39.71,6.6.08,1.86-.13,3.72-.13,5.59-.93-3.6-1-7.4-2.44-10.86-1.06-2.67-2.49-5.31-2.35-8.27C192.71,219.15,192.67,210.42,192.67,201.69Z"/><path class="cls-2" d="M89.75,273.22c1.1-1.43,2.64-.33,3.93.12-.07,16.65-1.9,33.25-1.79,49.91-.48,18.2-1.53,36.39-2,54.59-.3,4.36,5.77,2.22,7.73,4.35-.34,9.78-1.61,19.57-2.06,29.37l-.5-.45c.22,12.72-2.61,25.27-2.24,38v.38c-5.5-6-12-11.11-16.55-17.92-9-10.3-15.37-22.49-21-34.84-4.45-11.34-9.33-22.51-13.13-34.08-3-11.57-6.91-22.91-9.25-34.65-2.66-10.27-4.05-20.82-6.19-31.2l.68.36c4.93,3.05,10.94,3.23,16.52,2.4,10.15-1,19.26-6.12,27.74-11.44C78.19,283.83,83.74,278.22,89.75,273.22Z"/><path class="cls-3" d="M104.37,65.87a48.1,48.1,0,0,1,32.88-2.93c3.12.81,5.83,2.65,8.88,3.63,5.1-.29,10-2.17,15.13-2.23,7.62,0,16.06-1.11,22.6,3.69,9.88,7.06,14.47,19,18.27,30.06A478.58,478.58,0,0,1,215.52,154c1.52,8.56,4,17,4.21,25.75-.25,3.9,3.32,6.28,6,8.42a90.11,90.11,0,0,1,33.16,44.76c1,3.64,2.67,7.48,1.44,11.27-.34,1.74-1.45,3.68,0,5.25,3.81,6.1,8,12,10.58,18.8,4.12,11,5.26,22.88,4.53,34.52-.35,5.34-1.8,10.79-5.26,15-6.41,8-18.24,12.32-27.94,8-6.2-2.64-9.72-8.66-13.66-13.75a84.32,84.32,0,0,0-.37,10.78c.49,14,.17,28,.24,42-.05,4.39,1.24,8.64,1.52,13s-7.64,3.17-6.55,7.9q1.46,15.9,3.14,31.78c-1.89,2-3.75,4-5.77,5.89-2.62-13.56-2.48-27.45-4-41.13-4.36-.15-8.73-.12-13.09.14l-3.88.37a61.86,61.86,0,0,1-9.61.59c-13.33-.21-26.71.71-40-.75-12.32-.67-24.64-1.29-37-1.56-2.92.26-6.82-1.61-9.07.75-1.26,12.22-1.55,24.52-3.1,36.72-.55,11.61-1.18,23.23-2.3,34.81-2-1.33-4-2.77-5.95-4.24-.37-12.71,2.46-25.26,2.24-38l.5.45c.45-9.8,1.72-19.59,2.06-29.37-2-2.13-8,0-7.73-4.35.5-18.2,1.55-36.39,2-54.59-.11-16.66,1.72-33.26,1.79-49.91-1.29-.45-2.83-1.55-3.93-.12-6,5-11.56,10.61-18.16,14.88-8.48,5.32-17.59,10.43-27.74,11.44-5.58.83-11.59.65-16.52-2.4C15.6,287.63,13.38,271.67,10,257.88c-.86-6.68-1.21-13.42-1.58-20.14-1.56-6.13-.11-12.67-1.36-18.82-2.13-4.29-4.49-8.47-6.07-13a20.71,20.71,0,0,1,4.19-20c1.81-2.07,4.38-3.2,6.6-4.74.47-3-.21-6.21.51-9.22A18.71,18.71,0,0,1,17.68,167l2.59-1.15c11,.34,22,.9,33,2.14,1.74.44,4.39.21,5.12,2.29.94,2.64,1.68,5.35,2.73,8,2.22,0,4.56-.54,6.73.15a11.08,11.08,0,0,1,4.69,6.44c1.16,5-.9,10-3.75,14,.94,3.07,1.9,6.14,2.82,9.22,3.43-3.28,7.37-5.93,11-9,1.58-1.27,1.27-3.47,1.42-5.26,0-13.43,3.8-26.58,4.28-39.94-2.81-2.23-6.3-3.81-8.15-7-3.36-5.19-3-11.77-1.49-17.51-3.71.91-9.28,4.17-12.06.07-2.23-5.91-1.12-12.55.11-18.59C71.3,91,85.53,73.65,104.37,65.87ZM151.15,72c1.1,5.78,5.08,10.36,7.61,15.54l1,.08-.86,1.71c1.79-.13,3.59-.3,5.38-.53-1.43.22-2.84.54-4.24.85a23,23,0,0,0,3.85,8.17c-.14.47-.43,1.4-.57,1.87l.7-.09a30.84,30.84,0,0,0,3.68,8c0,.48-.07,1.46-.1,1.94l.67-.17A107.51,107.51,0,0,0,172.1,123c.87,1,2.12.14,3.17,0-.45-5-1.67-9.95-2.59-14.91l1.22-1-1.31,0a42.87,42.87,0,0,0-.63-8.76c0-.31,0-1,0-1.26l-.42,0A36.77,36.77,0,0,0,171,88l-.26-1.47c-.35-2.58-.73-5.16-1.08-7.74l-1,.08c.05-.39.17-1.16.22-1.54a45.27,45.27,0,0,0-1.85-6.25A87.42,87.42,0,0,0,151.15,72Zm-27.34,37.35c-10.18,4.93-20.48,9.6-30.75,14.33-1,.55-2.27,1-2.83,2.1,0,6,1.62,11.78,2.87,17.58,2.31,6.26,5,12.49,9.29,17.69,4.11,4.51,8.89,8.67,14.86,10.45,8.22,3.24,17.42,1.37,25.19-2.24,3.51-1.54,6.16-4.52,9.77-5.89l2.51,1.42a6.77,6.77,0,0,1-1.65,4.63c-4.32,2.8-8.71,5.55-13.62,7.19.62,7.48,2.36,14.83,3.58,22.24,2.8-2.11,6-4.29,7.55-7.5,6.38-6.39,11.86-13.57,17.3-20.75-.25-6.33-1.7-12.68-1-19,4.06-1.72,8.74-2,12.33-4.75,3.4-2.22,5-6.38,5.27-10.29.06-.47.19-1.41.25-1.89-.86-2-1.2-4.27-2.51-6-2-1.2-4.66-.64-6.46.64-3.37,2.49-4.37,6.94-7.38,9.75-1.14.79-2.83,1.68-4.13.73-2.84-1.3-2.31-4.94-3.68-7.26-2.09-2-5.09-2.81-7.2-4.83-3.73-3.37-5.6-8.14-7.42-12.69a63.26,63.26,0,0,1-2.28-14C136.78,103.05,130.3,106.24,123.81,109.33ZM88.19,146.88c-1.24-5.46-2.6-10.9-3.31-16.47C81.4,135.62,83.06,143.34,88.19,146.88Zm-71,25.48c10.34,1.63,20.75,3,31.12,4.61,2.78.72,3.44-2.8,4.84-4.46-11.05-1.77-22.22-2.19-33.35-3.13C18.89,170.36,18,171.36,17.17,172.36ZM171,175.55c-5.43,8.36-12.42,15.55-18.87,23.11a31.35,31.35,0,0,1-9.4,7.35c-2.53,1.11-4.61-1.29-5-3.6-1.38-7.77-2.77-15.55-3.59-23.4-2-1.44-4.64-.16-6.86.09l.08.69-2.42,1.13v.76l-.26-.9a102.78,102.78,0,0,0-23,11.83c-8.13,4.87-15.5,10.88-22.74,16.95-2.29,1.51-.65,4.26-.13,6.28,1.81,4.94,2.77,10.11,4.06,15.19.51,1.22,1,2.46,1.49,3.69,1.91,4.13,2.7,8.61,4.15,12.89,1.53,2.54,2.14,5.54,4,7.89.38,1.9.73,3.8,1.08,5.72l1.32-.06c.07.43.22,1.31.29,1.75.79-6,0-12.17,1.06-18.17.48-2.61.53-5.28.78-7.92,1.17-4.59.46-9.39.94-14.06a103.51,103.51,0,0,0,.81-11.67c.92-1,1.85-1.94,2.81-2.87.9,1.4,2.35,2.68,2.25,4.51.25,11.74-.88,23.45-2.21,35.11,0,9-1.17,18-1,27-1.08,8.24-.69,16.57-1.56,24.82-.66,10.38.23,20.83-1,31.17-.45,6.5,0,13-.39,19.54-1.13,8.12-.46,16.34-.75,24.51,8.41,1,16.9.45,25.35,1.08,11.33.32,22.65.95,34,1.6,21.06.28,42.16.14,63.18-1.32,1-.3,2.82.14,3.11-1.24.52-4.73-.64-9.42-.65-14.14-.18-11.67-.13-23.34-.13-35,.11-6-.33-12.06.61-18,.09-3.27-.72-6.51-.73-9.79-2.89,2.27-6.76,3.25-10.21,1.6-3.13-1.09-3.17-4.82-4.71-7.25-2.24-1.85-5.64-2.68-6.66-5.69-.83-2.53-.6-5.85-3.39-7.18a9.47,9.47,0,0,1-3.87-11.64c1.41-4.93,5.22-8.49,8.89-11.82a60.73,60.73,0,0,1-4.13-9c0-1.87.21-3.73.13-5.59,1.26.24,3.16-.57,3.9.94,1.94,3.64,3,7.68,4.23,11.59,8.14-2.38,17.16-1.6,24.41,3,1.21,1.16,2.55-.05,3.6-.8,5.67-4.54,12.15-7.87,18.39-11.52,1-.62,2.45-1.32,2.09-2.76-1-6.49-3.49-12.66-6.37-18.52-9.13-17.4-24.37-31.29-41.89-40-9.87-5.34-20.84-8.13-31.85-10C172.5,172.64,171.74,174.57,171,175.55ZM54.86,182.83c3,6.86,4.22,14.33,7.19,21.2A42,42,0,0,1,63.9,212c.3.5.9,1.48,1.19,2q.84,2.48,1.84,4.91a50.71,50.71,0,0,1,2.95,10.55l1.57-.35c.29-1.4,1.57-2.75,1-4.2-1.39-3.71-3.34-7.23-3.86-11.21l-.5-.79c-.51-3.8-2.54-7.11-3.58-10.75l-.39.09a228.3,228.3,0,0,0-8.84-25.56C53.18,178.32,54.36,180.69,54.86,182.83Zm-38.44-5.6c.78,1.15.66,3.69,2.65,3.52,5.28.42,11.84.11,15.34,4.9,2,2.48.27,5.51-.19,8.19,1.4,2.41,4.21,4,4.55,7,.9,3.12-1.49,5.61-3.44,7.66,1.11,1,2.22,2,3.35,3,.46,1.72,1.18,3.46.82,5.29,0,3-3.41,4-5.08,6,.07,1.08.17,2.15.3,3.23.94,2.22,3.26,2.53,5.35,3a21.81,21.81,0,0,1,6.12.92A134.66,134.66,0,0,0,62.25,231a4.12,4.12,0,0,0,2.6-.7c-1.45-2.31-1.78-5-2.34-7.65-.38-1-.76-2-1.12-3-1.64-2.36-2.17-5.23-3.44-7.77-.44-2.44-.89-4.86-1.4-7.28a111,111,0,0,1-6-20.3c-.94-1-1.84-2.17-3.31-2.2C36.85,181,26.73,178.55,16.42,177.23Zm46.64,5.16c1.06,3.36,1.76,7,4,9.84C68.09,188.62,68,182.62,63.06,182.39ZM5.8,195.32c-1.72,7.29,2.13,14.16,5.09,20.55,2,2.94,1.54,6.63,2.13,10,.94,5.26.31,10.65,1.27,15.92.77,6,.87,12.09,1.77,18.09,1.34,3.16,1.78,6.58,2.64,9.88a61.61,61.61,0,0,0,7.87,18.47c3.57,6.11,11.48,7.24,17.76,5.25A84.57,84.57,0,0,0,76.4,276c4.39-3.36,7.8-8,13-10.25-.59-1.62-1.28-3.18-1.74-4.83-1.34-7.14-6.6-12.87-7.06-20.26a57.17,57.17,0,0,1-3.15-8.79c-.35-.72-1-2.9-2-1.71-1.53,2.16-1.91,5.8-5,6.31-6,1.26-12.1.64-18.1,0-.06,3.89,1,7.66,1.46,11.49q-.94,1.11-1.86,2.25l-2.19-1.82c-1-4.1-2.62-8-3.2-12.21-4-3.7-10.45-1-14.73-4-1.83-3-2.59-6.6-4.27-9.72,2.33-1.51,5.48-2.54,6-5.68,1.2-3.67-3.51-5.42-6.37-4.68-3.2.31-8.25,3.36-9.5-1.39,3.63-3,8.79-2.91,12.53-5.77,1.4-1.07,3.64-2.49,2.43-4.54-3.35-3.59-8.89-2.7-12.94-.91-1.68,1-3.35-.24-4.94-.74,1.52-3.82,6.2-3.53,9.46-4.82,2.79-.64,4.37-3.13,5.62-5.47-5.1-2.35-11-4.31-16.61-2.83A19.94,19.94,0,0,0,5.8,195.32Zm244.48,56.6c-4.85,2.9-10,5.36-14.61,8.63a44.68,44.68,0,0,1,6.54,8c.74,1.69,2.61,2.14,4.14,2.87a14.87,14.87,0,0,1,8.84,10.24c-.3,2.47-4,2-4.91.12-3-4.71-8.46-6.83-12.07-11-3.59-3.77-7.27-7.64-12-9.91a22,22,0,0,0-20.41-.51,17.67,17.67,0,0,0-7.94,9.42c-1,2.53,1.13,4.36,2.69,6,5.3-2.93,9.2-8,14.93-10.19.2.94.36,1.88.49,2.84-3.16,4.45-8,7.36-11.2,11.78-1.41,2.77.88,5.24,2.48,7.26,5.38-2.58,9.49-7.19,14.9-9.72,1.65.2,2.1,1.88,1.31,3.17-2.69,4-6.79,6.79-10.48,9.82-1.53,4.69,5,6.35,7.61,3.34,2.78-2.14,5.9-5.47,9.71-4.53,1.53,2.94-2,4.52-3.65,6.29,3,6.22,7,11.91,11,17.53,3.07,4.32,8,8.17,13.56,7.64,6.74-.76,13.36-4.77,16.25-11.05,3.15-6.63,2.65-14.25,1.91-21.35-1.34-6.5-2.1-13.23-5-19.3a88.71,88.71,0,0,0-10.89-17.91C252.63,250.17,251.22,251.51,250.28,251.92Z"/><path class="cls-3" d="M128.59,125.16l2.69-.24A33.18,33.18,0,0,1,134,139.68c-1.49-.11-3.57.12-3.84-1.86C129,133.74,127.71,129.42,128.59,125.16Z"/><path class="cls-3" d="M103.9,126.73c1.39.53,3.08.94,3.65,2.52,1.76,4.08,2,8.62,2.52,13-.83-.07-1.66-.13-2.49-.17l-1.65-1c-.31-1-.61-2-.9-3-.83-2.71-1.47-5.46-2.09-8.22Z"/><path class="cls-3" d="M111.39,143.39c2.43-4.63,4.18-9.59,6.88-14.07,5.31,4.27,5,11.51,6.56,17.55a68.46,68.46,0,0,1-11.73,3.92C109.29,150,110.1,146,111.39,143.39Zm2.16,3.94c2.4-.7,5.12-.77,7.19-2.34-.65-2.75-1.53-5.44-2.3-8.16C116.7,140.25,113.76,143.33,113.55,147.33Z"/><path class="cls-3" d="M143.69,138.09c-.32-2.09,1-2.78,2.67-2.9,0,1.17,0,2.35,0,3.53-1.9.85-3.77,1.78-5.61,2.75-.5-1.29-1-2.57-1.45-3.87l.26-.69,2.31.06-.4,1Z"/><path class="cls-3" d="M136.62,142.87l2.69.94c-.59.8-1.17,1.62-1.77,2.41-4.31,4.89-9.92,9.38-16.62,10.09-.12-.53-.35-1.58-.46-2.1C126.65,151.7,131.73,147.31,136.62,142.87Z"/><path class="cls-3" d="M98.77,145.59c1.58-.34,3.13-1.43,4.8-1.1,1.48,3.16-2.76,3.36-4.78,4.06C98.77,147.56,98.77,146.58,98.77,145.59Z"/><path class="cls-3" d="M194.83,195.5c1-1.75,2.07-3.44,3.14-5.14l3.65.19c-3.38,13.53-1.89,27.52-2.22,41.3a2.6,2.6,0,0,1-2.51,3L195,234C192.11,221.36,193,208.23,194.83,195.5Z"/><path class="cls-3" d="M128.8,260.83c.23-1.45,1.5-2.35,2.32-3.47,4.54,3.81,7.52,9,10.71,13.88,9.71,15.85,19.88,31.42,29.65,47.23,1.57,2.66,3.75,5.17,4.22,8.3-.23,2.71-3.81,2.33-4.8.34-12.43-17.26-23-35.78-34.51-53.63C134,269.19,130.71,265.39,128.8,260.83Z"/><path class="cls-3" d="M135.14,398.12c3.88-.42,8-1.31,11.79.1a6.62,6.62,0,0,1,2.79,5.57c.37,7.31,1.34,14.59,1.23,21.93.08,12.95,2,25.81,1.63,38.77-2.19.4-4.41.65-6.61.87,1.51-7.77.53-15.71.12-23.54-.48-7.34.11-14.72-.73-22-.65-5.53-.22-11.13-1.22-16.61A45.49,45.49,0,0,1,136,402C135.62,400.73,135.39,399.41,135.14,398.12Z"/><path class="cls-4" d="M151.15,72a87.42,87.42,0,0,1,15.92-.87,45.27,45.27,0,0,1,1.85,6.25c-4.56.82-9.22.89-13.77,1.77l.24,1.39c4.42-.59,8.84-1.35,13.31-1.62l1-.08c.35,2.58.73,5.16,1.08,7.74q-5.52.28-11,1l-1-.08C156.23,82.34,152.25,77.76,151.15,72Z"/><path class="cls-4" d="M164.29,88.78c2.23-.31,4.48-.53,6.73-.75a36.77,36.77,0,0,1,.57,9.07,65.59,65.59,0,0,0-7.69.7,23,23,0,0,1-3.85-8.17C161.45,89.32,162.86,89,164.29,88.78Z"/><path class="cls-4" d="M164,99.58c2.66-.32,5.29-.78,7.93-1.24a42.87,42.87,0,0,1,.63,8.76,37.88,37.88,0,0,0-4.88.5A30.84,30.84,0,0,1,164,99.58Z"/><path class="cls-4" d="M168.28,109.37c1.48-.38,2.95-.78,4.4-1.29.92,5,2.14,9.87,2.59,14.91-1.05.17-2.3,1.08-3.17,0A107.51,107.51,0,0,1,168.28,109.37Z"/><path class="cls-4" d="M104.14,381.8c2.25-2.36,6.15-.49,9.07-.75,12.34.27,24.66.89,37,1.56,13.29,1.46,26.67.54,40,.75a61.86,61.86,0,0,0,9.61-.59c1.07,19,1.35,38.08,2.55,57.08a11.19,11.19,0,0,1-1.94,2c-14,10.9-30.16,19.66-47.83,22.63.34-13-1.55-25.82-1.63-38.77.11-7.34-.86-14.62-1.23-21.93a6.62,6.62,0,0,0-2.79-5.57c-3.8-1.41-7.91-.52-11.79-.1.25,1.29.48,2.61.85,3.89a45.49,45.49,0,0,0,8.15,1.17c1,5.48.57,11.08,1.22,16.61.84,7.31.25,14.69.73,22,.41,7.83,1.39,15.77-.12,23.54-16.54,2.2-33.31-2.84-47.27-11.64l0-.39c1.12-11.58,1.75-23.2,2.3-34.81C102.59,406.32,102.88,394,104.14,381.8Z"/><path class="cls-4" d="M203.68,382.4c4.36-.26,8.73-.29,13.09-.14,1.53,13.68,1.39,27.57,4,41.13l.05.3a88.94,88.94,0,0,1-6.77,6.1c0-15.83-1.36-31.61-1.52-47.43l-4.19-.05c.71,16.52,1.36,33,2.09,49.56.31,2.67-2.68,3.79-4.37,5.2C205.29,418.85,204.81,400.6,203.68,382.4Z"/><path class="cls-5" d="M171,175.55c.74-1,1.5-2.91,3.11-2.16,11,1.84,22,4.63,31.85,10a27.74,27.74,0,0,0-4.34,7.19l-3.65-.19c-1.07,1.7-2.15,3.39-3.14,5.14-1.12,1.9-2.33,3.89-2.16,6.19,0,8.73,0,17.46,0,26.19-.14,3,1.29,5.6,2.35,8.27,1.44,3.46,1.51,7.26,2.44,10.86a60.73,60.73,0,0,0,4.13,9c-3.67,3.33-7.48,6.89-8.89,11.82a9.47,9.47,0,0,0,3.87,11.64c2.79,1.33,2.56,4.65,3.39,7.18,1,3,4.42,3.84,6.66,5.69,1.54,2.43,1.58,6.16,4.71,7.25,3.45,1.65,7.32.67,10.21-1.6,0,3.28.82,6.52.73,9.79-.94,6-.5,12-.61,18,0,11.66,0,23.33.13,35,0,4.72,1.17,9.41.65,14.14-.29,1.38-2.11.94-3.11,1.24-21,1.46-42.12,1.6-63.18,1.32-11.32-.65-22.64-1.28-34-1.6-8.45-.63-16.94-.12-25.35-1.08.29-8.17-.38-16.39.75-24.51.44-6.5-.06-13,.39-19.54,1.28-10.34.39-20.79,1-31.17.87-8.25.48-16.58,1.56-24.82-.13-9,1.07-18,1-27,1.33-11.66,2.46-23.37,2.21-35.11.1-1.83-1.35-3.11-2.25-4.51.22-5.2.28-10.41.08-15.61a102.78,102.78,0,0,1,23-11.83l.26.9c4.38,16,4.5,33,10.35,48.68a26.2,26.2,0,0,0,6.3-5.19c6-6.63,12.2-13.17,18.25-19.8,7.44-7.22,13.88-15.38,21.28-22.64,1.48-1.95,4.1-3.36,4.75-5.76l-1.16-.83c-2.38,1.28-3.84,3.67-5.68,5.57q-21,22.65-42.4,45c-2-4-2.43-8.61-3.45-12.94-2.07-11.3-4.35-22.57-5.81-34l-.08-.69c2.22-.25,4.81-1.53,6.86-.09.82,7.85,2.21,15.63,3.59,23.4.39,2.31,2.47,4.71,5,3.6a31.35,31.35,0,0,0,9.4-7.35C158.58,191.1,165.57,183.91,171,175.55Zm-42.2,85.28c1.91,4.56,5.18,8.36,7.59,12.65,11.53,17.85,22.08,36.37,34.51,53.63,1,2,4.57,2.37,4.8-.34-.47-3.13-2.65-5.64-4.22-8.3-9.77-15.81-19.94-31.38-29.65-47.23-3.19-4.9-6.17-10.07-10.71-13.88C130.3,258.48,129,259.38,128.8,260.83Z"/><path class="cls-6" d="M123.81,109.33c6.49-3.09,13-6.28,19.86-8.36A63.26,63.26,0,0,0,146,115c1.82,4.55,3.69,9.32,7.42,12.69,2.11,2,5.11,2.79,7.2,4.83,1.37,2.32.84,6,3.68,7.26,1.3.95,3,.06,4.13-.73,3-2.81,4-7.26,7.38-9.75,1.8-1.28,4.5-1.84,6.46-.64,1.31,1.75,1.65,4,2.51,6-2.08-.12-4.48-1.06-6.29.41-3.25,2.46-7.84,5-7.41,9.75,5.86.41,10.5-3.62,13.45-8.27-.29,3.91-1.87,8.07-5.27,10.29-3.59,2.77-8.27,3-12.33,4.75-.7,6.33.75,12.68,1,19-5.44,7.18-10.92,14.36-17.3,20.75a98.63,98.63,0,0,1,3-16.26c.65-1.91,0-3.83-.52-5.67a6.77,6.77,0,0,0,1.65-4.63l-2.51-1.42c-3.61,1.37-6.26,4.35-9.77,5.89-7.77,3.61-17,5.48-25.19,2.24-6-1.78-10.75-5.94-14.86-10.45a38,38,0,0,0,6.15-3.94c1.79-1.89,3-4.24,4.56-6.3a68.46,68.46,0,0,0,11.73-3.92c-1.53-6-1.25-13.28-6.56-17.55-2.7,4.48-4.45,9.44-6.88,14.07l-1.32-1.14c-.48-4.38-.76-8.92-2.52-13-.57-1.58-2.26-2-3.65-2.52l-1,3.09c.62,2.76,1.26,5.51,2.09,8.22a19.27,19.27,0,0,0-11.93,5.3c-1.25-5.8-2.84-11.62-2.87-17.58.56-1.12,1.8-1.55,2.83-2.1C103.33,118.93,113.63,114.26,123.81,109.33Zm4.78,15.83c-.88,4.26.43,8.58,1.58,12.66.27,2,2.35,1.75,3.84,1.86a33.18,33.18,0,0,0-2.73-14.76Zm15,6.07c-1.81,1.39-4.32,3.09-4,5.68l-.26.69c-.93,1.73-1.84,3.49-2.69,5.27-4.89,4.44-10,8.83-16.16,11.34.11.52.34,1.57.46,2.1,6.7-.71,12.31-5.2,16.62-10.09.49,1.1,1,2.19,1.52,3.28,3.41,1.88,6.95,4.64,11.09,3.88,4.24-.24,7.19-3.74,9.43-7,1-4.91,1.08-11.34-3.51-14.54C152.56,128.9,147.52,129.63,143.59,131.23Z"/><path class="cls-6" d="M179,181.71c1.84-1.9,3.3-4.29,5.68-5.57l1.16.83c-.65,2.4-3.27,3.81-4.75,5.76-7.4,7.26-13.84,15.42-21.28,22.64-6.05,6.63-12.2,13.17-18.25,19.8a26.2,26.2,0,0,1-6.3,5.19c-5.85-15.66-6-32.67-10.35-48.68v-.76l2.42-1.13c1.46,11.4,3.74,22.67,5.81,34,1,4.33,1.48,8.89,3.45,12.94Q158,204.4,179,181.71Z"/><path class="cls-6" d="M63.06,182.39c5,.23,5,6.23,4,9.84C64.82,189.42,64.12,185.75,63.06,182.39Z"/><path class="cls-6" d="M5.8,195.32a19.94,19.94,0,0,1,7.44-9.65c5.6-1.48,11.51.48,16.61,2.83-1.25,2.34-2.83,4.83-5.62,5.47-3.26,1.29-7.94,1-9.46,4.82,1.59.5,3.26,1.74,4.94.74,4.05-1.79,9.59-2.68,12.94.91,1.21,2.05-1,3.47-2.43,4.54-3.74,2.86-8.9,2.76-12.53,5.77,1.25,4.75,6.3,1.7,9.5,1.39,2.86-.74,7.57,1,6.37,4.68-.53,3.14-3.68,4.17-6,5.68,1.68,3.12,2.44,6.68,4.27,9.72,4.28,3.07,10.74.33,14.73,4,.58,4.18,2.22,8.11,3.2,12.21l2.19,1.82q.91-1.14,1.86-2.25c-.49-3.83-1.52-7.6-1.46-11.49,6,.59,12.15,1.21,18.1,0,3.11-.51,3.49-4.15,5-6.31,1-1.19,1.64,1,2,1.71a57.17,57.17,0,0,0,3.15,8.79c.46,7.39,5.72,13.12,7.06,20.26.46,1.65,1.15,3.21,1.74,4.83-5.2,2.24-8.61,6.89-13,10.25a84.57,84.57,0,0,1-32.07,17.44c-6.28,2-14.19.86-17.76-5.25a61.61,61.61,0,0,1-7.87-18.47c-.86-3.3-1.3-6.72-2.64-9.88-.9-6-1-12.08-1.77-18.09-1-5.27-.33-10.66-1.27-15.92-.59-3.35-.13-7-2.13-10C7.93,209.48,4.08,202.61,5.8,195.32Z"/><path class="cls-6" d="M250.28,251.92c.94-.41,2.35-1.75,3.23-.49a88.71,88.71,0,0,1,10.89,17.91c2.85,6.07,3.61,12.8,5,19.3.74,7.1,1.24,14.72-1.91,21.35-2.89,6.28-9.51,10.29-16.25,11.05-5.58.53-10.49-3.32-13.56-7.64-4-5.62-8-11.31-11-17.53,1.67-1.77,5.18-3.35,3.65-6.29-3.81-.94-6.93,2.39-9.71,4.53-2.61,3-9.14,1.35-7.61-3.34,3.69-3,7.79-5.79,10.48-9.82.79-1.29.34-3-1.31-3.17-5.41,2.53-9.52,7.14-14.9,9.72-1.6-2-3.89-4.49-2.48-7.26,3.17-4.42,8-7.33,11.2-11.78-.13-1-.29-1.9-.49-2.84-5.73,2.16-9.63,7.26-14.93,10.19-1.56-1.63-3.71-3.46-2.69-6a17.67,17.67,0,0,1,7.94-9.42,22,22,0,0,1,20.41.51c4.76,2.27,8.44,6.14,12,9.91,3.61,4.16,9,6.28,12.07,11,.91,1.9,4.61,2.35,4.91-.12a14.87,14.87,0,0,0-8.84-10.24c-1.53-.73-3.4-1.18-4.14-2.87a44.68,44.68,0,0,0-6.54-8C240.3,257.28,245.43,254.82,250.28,251.92Z"/><path class="cls-7" d="M143.59,131.23c3.93-1.6,9-2.33,12.48.64,4.59,3.2,4.51,9.63,3.51,14.54-2.24,3.23-5.19,6.73-9.43,7-4.14.76-7.68-2-11.09-3.88-.52-1.09-1-2.18-1.52-3.28.6-.79,1.18-1.61,1.77-2.41l-2.69-.94c.85-1.78,1.76-3.54,2.69-5.27.43,1.3.95,2.58,1.45,3.87,1.84-1,3.71-1.9,5.61-2.75,0-1.18,0-2.36,0-3.53-1.69.12-3,.81-2.67,2.9l-2.21-.1.4-1-2.31-.06C139.27,134.32,141.78,132.62,143.59,131.23Z"/><path class="cls-7" d="M88.19,146.88c-5.13-3.54-6.79-11.26-3.31-16.47C85.59,136,87,141.42,88.19,146.88Z"/><path class="cls-7" d="M178.44,135.05c1.81-1.47,4.21-.53,6.29-.41-.06.48-.19,1.42-.25,1.89-2.95,4.65-7.59,8.68-13.45,8.27C170.6,140.07,175.19,137.51,178.44,135.05Z"/><path class="cls-7" d="M113.55,147.33c.21-4,3.15-7.08,4.89-10.5.77,2.72,1.65,5.41,2.3,8.16C118.67,146.56,116,146.63,113.55,147.33Z"/><path class="cls-7" d="M105,138c.29,1,.59,2,.9,3l1.65,1c.83,0,1.66.1,2.49.17l1.32,1.14c-1.29,2.6-2.1,6.64,1.71,7.4-1.57,2.06-2.77,4.41-4.56,6.3a38,38,0,0,1-6.15,3.94c-4.27-5.2-7-11.43-9.29-17.69A19.27,19.27,0,0,1,105,138Zm-6.26,7.55c0,1,0,2,0,3,2-.7,6.26-.9,4.78-4.06C101.9,144.16,100.35,145.25,98.77,145.59Z"/><path class="cls-7" d="M139.45,176.59c4.91-1.64,9.3-4.39,13.62-7.19.52,1.84,1.17,3.76.52,5.67a98.63,98.63,0,0,0-3,16.26c-1.52,3.21-4.75,5.39-7.55,7.5C141.81,191.42,140.07,184.07,139.45,176.59Z"/></g></g></svg>